ply
format ascii 1.0
comment Created by Jack Hoxley
element vertex 6
property float x
property float y
property float z
property float nx
property float ny
property float nz
element face 4
property list uchar uint vertex_indices
end_header
-0.500000 0.000000 0.000000 0.000000 1.000000 0.000000
0.500000 0.000000 0.000000 0.000000 1.000000 0.000000
0.00000 0.000000 1.000000 0.000000 1.000000 0.000000
-1.000000 0.000000 1.000000 0.000000 1.000000 0.000000
0.000000 0.000000 -1.000000 0.000000 1.000000 0.000000
1.000000 0.000000 1.000000 0.000000 1.000000 0.000000
3 0 1 2
3 4 1 0
3 1 5 2
3 0 2 3

