ply
format ascii 1.0
comment Created by Blender3D 249 - www.blender.org, source file: spaceship3.blend
element vertex 250
property float x
property float y
property float z
property float nx
property float ny
property float nz
element face 496
property list uchar uint vertex_indices
end_header
1.226957 -0.361418 2.921458 0.251625 0.531754 0.808618 
1.591894 -0.361418 2.921458 -0.623157 0.329203 0.709403 
1.591894 -0.138584 2.921458 -0.251625 -0.531754 0.808618 
1.226957 -0.138583 2.921458 0.623157 -0.329203 0.709403 
1.105312 -0.435696 3.193775 0.369274 -0.359996 0.856746 
1.105312 -0.064305 3.193775 -0.323771 -0.381573 0.865749 
1.713539 -0.064305 3.193775 -0.369274 0.359996 0.856746 
1.713539 -0.435696 3.193775 0.323771 0.381573 0.865749 
-1.224900 -0.137326 2.921458 -0.258950 -0.542589 0.799066 
-1.593951 -0.137326 2.921458 0.641102 -0.335826 0.690054 
-1.593951 -0.362673 2.921458 0.258950 0.542589 0.799066 
-1.224900 -0.362673 2.921458 -0.641102 0.335826 0.690054 
-1.114185 -0.069722 3.193775 -0.385937 0.350719 0.853236 
-1.114185 -0.430277 3.193775 0.304880 0.389294 0.869167 
-1.704667 -0.430277 3.193775 0.385937 -0.350719 0.853236 
-1.704667 -0.069722 3.193775 -0.304880 -0.389294 0.869167 
-1.000000 0.000000 3.004810 -0.082430 0.928312 0.362529 
-1.000000 -0.500000 3.004810 -0.719840 -0.623127 0.305734 
-1.818851 -0.500000 3.004810 -0.875179 -0.483169 -0.023255 
-1.818851 0.000000 3.004810 -0.514237 0.853114 0.087954 
1.000000 -0.500001 3.004810 0.792627 -0.503494 0.343791 
1.000000 -0.000001 3.004810 0.200934 0.941435 0.270699 
1.818851 -0.000001 3.004810 0.875729 0.480667 -0.044740 
1.818851 -0.500001 3.004810 0.516800 -0.853694 0.063753 
1.526034 -0.177113 2.560307 0.661916 0.606067 -0.440992 
1.526034 -0.322887 2.560307 0.781671 -0.388073 -0.488205 
1.000000 -0.000000 1.502405 0.934538 0.333476 -0.124058 
1.000000 -0.500000 1.502405 0.970489 -0.218207 -0.102512 
-1.526034 -0.177113 2.560307 -0.781671 0.388073 -0.488205 
-1.526035 -0.322887 2.560307 -0.661916 -0.606067 -0.440992 
-1.000000 -0.500000 1.502405 -0.978088 -0.151708 -0.142521 
-1.000000 0.000000 1.502405 -0.922391 0.379620 -0.070894 
-1.000000 -1.000000 1.502405 -0.836268 -0.543840 -0.069887 
-1.000000 -1.000000 0.000000 -0.413007 -0.883480 0.221015 
-0.000000 -1.000000 0.000000 0.000000 -0.994751 -0.102268 
-0.000000 -1.642315 1.502405 0.000000 -0.990753 -0.135502 
-1.000000 -1.000000 3.004810 -0.873623 -0.477401 0.093966 
-0.000001 -1.642315 3.004810 0.000000 -0.990204 0.139409 
1.000000 -1.000000 1.502405 0.885098 -0.461592 -0.059328 
1.000000 -1.000000 0.000000 0.349345 -0.918210 0.186529 
0.999999 -1.000001 3.004810 0.814295 -0.569506 0.112064 
-1.000000 -0.500000 0.472872 -0.973235 -0.004608 0.229713 
-1.000000 0.000000 0.000000 -0.775323 0.617695 0.131535 
-0.720683 0.500000 1.167583 -0.874142 0.485641 -0.003937 
-0.716018 0.500000 0.000000 -0.844539 0.531693 -0.063143 
-0.441365 1.000000 0.832762 -0.574541 0.818079 0.024720 
-0.432036 1.000000 0.000000 -0.816126 0.569506 0.097598 
-0.725347 0.500000 2.335167 -0.526597 0.770989 0.358104 
-0.450694 1.000000 1.665524 -0.423292 0.859798 0.285531 
-0.628397 0.136134 -3.004810 -0.316019 0.592792 -0.740745 
-0.672208 0.318067 -1.502405 -0.676901 0.728141 -0.107486 
-0.256794 0.272267 -3.004810 -0.613117 0.356182 -0.705100 
-0.344415 0.636134 -1.502405 -0.920591 0.370678 -0.122715 
-1.000000 0.000000 -3.004810 -0.123081 0.814478 -0.566942 
-1.000000 0.000000 -1.502405 -0.387005 0.921873 -0.018433 
0.716018 0.500000 0.000000 0.844539 0.531693 -0.063143 
0.720683 0.500000 1.167583 0.874142 0.485641 -0.003937 
1.000000 -0.000000 0.000000 0.775628 0.617359 0.131352 
0.725347 0.499999 2.335167 0.526597 0.770989 0.358104 
0.432037 1.000000 0.000000 0.816157 0.569506 0.097598 
0.441365 1.000000 0.832762 0.574541 0.818079 0.024720 
0.450694 1.000000 1.665524 0.423292 0.859798 0.285531 
0.672208 0.318067 -1.502405 0.676901 0.728141 -0.107486 
0.256794 0.272267 -3.004810 0.613117 0.356182 -0.705100 
0.344415 0.636133 -1.502405 0.920591 0.370678 -0.122715 
0.628397 0.136134 -3.004810 0.316019 0.592792 -0.740745 
1.000000 -0.000000 -1.502405 0.387280 0.921751 -0.018433 
1.000000 0.000000 -3.004810 0.123112 0.814478 -0.566942 
1.000000 -0.500000 0.472872 0.973327 -0.004608 0.229347 
2.982516 -0.338994 -1.836689 0.319376 0.928800 0.187841 
2.982516 -0.632934 -1.363817 0.697623 -0.022095 0.716086 
4.965032 -0.765868 -3.200506 0.933775 -0.018036 0.357372 
4.965032 -0.677988 -3.673378 0.674459 0.736961 0.043947 
2.982516 -0.926874 -1.836689 0.204199 -0.958770 0.197516 
4.965032 -0.853748 -3.673378 0.608478 -0.792108 0.047853 
2.982516 -0.338994 -2.896682 0.168523 0.985687 0.000000 
2.982516 -0.338994 -3.956675 -0.061708 0.903897 -0.423261 
4.965032 -0.677988 -4.290959 0.646443 0.762932 0.000000 
4.965032 -0.677988 -4.908540 0.554979 0.776330 -0.298715 
2.982516 -0.926874 -2.896682 0.036836 -0.999298 0.000000 
4.965032 -0.853748 -4.290959 0.575640 -0.817682 0.000000 
2.982516 -0.926874 -3.956675 -0.176092 -0.895169 -0.409375 
4.965032 -0.853748 -4.908540 0.482711 -0.818873 -0.310495 
1.000000 -1.000000 -1.502405 0.018433 -0.999817 0.000000 
1.000000 -1.000000 -3.004810 0.007782 -0.905301 -0.424665 
1.000000 -0.500000 -3.284924 -0.275918 0.004334 -0.961150 
2.982516 -0.632934 -4.236789 -0.401074 0.014008 -0.915922 
4.965032 -0.765868 -5.188654 0.945433 0.009308 -0.325663 
4.965032 -0.765868 -4.290959 1.000000 0.000000 0.000000 
-2.989589 -0.338993 -1.836689 -0.318430 0.929106 0.187994 
-2.989589 -0.338993 -2.896682 -0.167943 0.985778 0.000000 
-4.979179 -0.677986 -3.673378 -0.674093 0.737297 0.043977 
-4.979179 -0.677986 -4.290959 -0.646138 0.763176 0.000000 
-2.989589 -0.338993 -3.956675 0.061525 0.903867 -0.423292 
-4.979179 -0.677986 -4.908540 -0.555040 0.776299 -0.298715 
-2.989590 -0.632933 -1.363817 -0.696341 -0.022004 0.717338 
-2.989590 -0.926873 -1.836689 -0.203558 -0.958892 0.197607 
-4.979179 -0.765866 -3.200506 -0.933561 -0.017945 0.357921 
-4.979179 -0.853746 -3.673378 -0.608295 -0.792230 0.047853 
-1.000000 -1.000000 -1.502405 -0.018342 -0.999817 0.000000 
-2.989590 -0.926873 -2.896682 -0.036714 -0.999298 0.000000 
-1.000000 -1.000000 -3.004810 -0.006745 -0.932493 -0.361034 
-2.989589 -0.926873 -3.956675 0.175542 -0.895230 -0.409528 
-4.979179 -0.853746 -4.290959 -0.575579 -0.817713 0.000000 
-4.979179 -0.853746 -4.908540 -0.483016 -0.818690 -0.310465 
-2.989589 -0.632933 -4.236790 0.399884 0.013916 -0.916440 
-4.979179 -0.765866 -5.188655 -0.945463 0.009217 -0.325510 
-1.000000 -0.500000 -3.284924 0.275277 0.004303 -0.961333 
-4.979179 -0.765866 -4.290959 -1.000000 0.000000 0.000000 
-0.000000 -0.000000 3.004810 0.000000 0.926786 0.375561 
-0.000000 -0.184653 4.431859 0.000000 0.986145 0.165746 
0.630694 -0.184653 4.431859 0.653188 0.680990 0.330943 
-0.000000 -0.369306 5.858910 0.000000 0.965728 0.259499 
0.261388 -0.369306 5.185186 0.512986 0.819025 0.256905 
-0.630694 -0.184653 4.431859 -0.653188 0.680990 0.330943 
-0.261388 -0.369306 5.185186 -0.512986 0.819025 0.256905 
0.630694 -0.500000 4.431859 0.949034 0.139897 0.282357 
0.630693 -0.815347 4.431859 0.851466 -0.449721 0.269662 
0.261387 -0.500000 5.858910 0.717795 0.574084 0.393902 
0.261387 -0.630694 5.858910 0.796594 -0.379284 0.470656 
-0.630694 -0.500000 4.431859 -0.949034 0.139897 0.282357 
-0.261388 -0.500000 5.858910 -0.717795 0.574084 0.393902 
-0.630694 -0.815347 4.431859 -0.851466 -0.449721 0.269662 
-0.261388 -0.630694 5.858910 -0.796594 -0.379284 0.470656 
-0.000000 -1.457662 4.431859 0.000000 -0.943602 0.331034 
-0.000000 -1.273009 4.745124 0.000000 -0.891720 0.452498 
-0.000000 -0.500000 6.114677 0.000000 -0.034791 0.999390 
0.000000 1.168507 0.498854 0.000000 0.986572 0.163213 
0.000001 2.039557 -0.742968 0.000000 0.807367 0.589984 
-0.266430 2.039557 -1.241822 -0.947325 0.289651 0.136479 
0.000001 3.079113 -1.984790 0.000000 0.917814 0.396985 
-0.100824 3.079113 -2.483644 -0.731620 0.071383 0.677938 
0.266432 2.039556 -1.241822 0.947325 0.289651 0.136479 
0.100827 3.079113 -2.483644 0.831660 -0.156804 0.532640 
0.222621 1.857623 -2.123316 0.995911 0.071780 -0.054445 
0.100827 3.079113 -2.744227 0.732383 -0.680685 -0.015503 
0.178811 1.675690 -3.004809 0.690909 0.041108 -0.721732 
0.100827 3.079113 -3.004809 0.192541 -0.182134 -0.964232 
-0.222620 1.857623 -2.123316 -0.995911 0.071780 -0.054445 
-0.178809 1.675690 -3.004809 -0.690909 0.041108 -0.721732 
-0.100824 3.079113 -2.744227 -0.732383 -0.680685 -0.015503 
-0.100824 3.079113 -3.004809 -0.182958 -0.356334 -0.916257 
0.000001 1.675690 -3.004809 0.000000 0.000000 -1.000000 
0.000001 3.079113 -3.004809 0.000000 0.000000 -1.000000 
0.000000 0.272267 -3.004810 0.000000 0.000000 -1.000000 
0.000001 3.154157 -3.004809 0.000000 0.000000 -1.000000 
0.100827 3.154157 -3.004809 0.000000 0.000000 -1.000000 
0.000001 3.229202 -3.004809 0.000000 0.707083 -0.707083 
0.100827 3.229202 -3.004809 0.000000 0.707083 -0.707083 
-0.100824 3.154158 -3.004809 0.000000 0.000000 -1.000000 
-0.100824 3.229202 -3.004809 0.000000 0.554674 -0.832026 
0.000001 3.154157 -2.483644 0.000000 0.351695 0.936094 
-0.100824 3.154158 -2.483644 0.000000 0.000000 1.000000 
0.000001 3.229202 -2.483644 0.000000 0.599994 0.799982 
-0.100824 3.229202 -2.483644 0.000000 0.894406 0.447188 
0.100827 3.154157 -2.483644 0.000000 0.000000 1.000000 
0.100827 3.229202 -2.483644 0.000000 0.554674 0.832026 
-0.100824 3.229202 -2.744227 0.000000 1.000000 0.000000 
0.000001 3.229202 -2.744227 0.000000 1.000000 0.000000 
0.100827 3.229202 -2.744227 0.000000 1.000000 0.000000 
0.463011 3.079112 -3.004809 0.000000 -0.832026 -0.554674 
0.463011 3.079112 -2.744227 0.000000 -1.000000 0.000000 
0.463011 3.079112 -2.483644 0.000000 -0.707083 0.707083 
0.825195 3.079112 -3.004809 0.333323 -0.666646 -0.666646 
0.825195 3.079112 -2.744227 0.799982 -0.599994 0.000000 
0.825195 3.079111 -2.483644 0.408246 -0.408246 0.816492 
0.463011 3.229201 -3.004809 0.000000 0.832026 -0.554674 
0.463011 3.154157 -3.004809 0.000000 0.000000 -1.000000 
0.825196 3.229201 -3.004809 0.408246 0.408246 -0.816492 
0.825195 3.154156 -3.004809 0.894406 0.000000 -0.447188 
0.463011 3.229201 -2.483644 0.000000 0.707083 0.707083 
0.463011 3.229201 -2.744227 0.000000 1.000000 0.000000 
0.825196 3.229200 -2.483644 0.408246 0.816492 0.408246 
0.825196 3.229200 -2.744227 0.799982 0.599994 0.000000 
0.463011 3.154156 -2.483644 0.000000 0.000000 1.000000 
0.825195 3.154156 -2.483644 0.799982 0.000000 0.599994 
0.825195 3.154156 -2.744227 1.000000 0.000000 0.000000 
-0.463009 3.079113 -2.483644 0.000000 -0.707083 0.707083 
-0.463009 3.079113 -2.744227 0.000000 -1.000000 0.000000 
-0.463009 3.079113 -3.004809 0.000000 -0.707083 -0.707083 
-0.825193 3.079114 -2.483644 -0.666646 -0.666646 0.333323 
-0.825193 3.079114 -2.744227 -0.707083 -0.707083 0.000000 
-0.825193 3.079114 -3.004809 -0.408246 -0.408246 -0.816492 
-0.463008 3.229203 -2.483644 0.000000 0.707083 0.707083 
-0.463008 3.154158 -2.483644 0.000000 0.000000 1.000000 
-0.825193 3.229203 -2.483644 -0.408246 0.408246 0.816492 
-0.825193 3.154159 -2.483644 -0.707083 0.000000 0.707083 
-0.463008 3.229203 -3.004809 0.000000 0.707083 -0.707083 
-0.463008 3.229203 -2.744227 0.000000 1.000000 0.000000 
-0.825193 3.229203 -3.004809 -0.666646 0.666646 -0.333323 
-0.825193 3.229203 -2.744227 -0.707083 0.707083 0.000000 
-0.463008 3.154158 -3.004809 0.000000 0.000000 -1.000000 
-0.825193 3.154159 -3.004809 -0.707083 0.000000 -0.707083 
-0.825193 3.154159 -2.744227 -1.000000 0.000000 0.000000 
-0.797853 -0.101073 -3.144927 -0.066164 0.564165 -0.822962 
0.000000 -0.101073 -3.144927 0.000000 0.810999 -0.585009 
-0.595706 -0.202147 -3.285044 -0.337016 0.476302 -0.812098 
0.000000 -0.202147 -3.285044 0.000000 0.822657 -0.568499 
0.797853 -0.101073 -3.144927 0.066164 0.564165 -0.822962 
0.595706 -0.202147 -3.285044 0.337016 0.476302 -0.812098 
0.000000 0.000000 -3.004810 0.000000 0.455489 -0.890225 
0.797853 -0.500000 -3.144927 0.225196 0.000000 -0.974303 
0.595706 -0.500000 -3.285044 0.586291 0.000000 -0.810083 
0.797853 -0.898927 -3.144927 0.066164 -0.564165 -0.822962 
0.595706 -0.797853 -3.285044 0.337016 -0.476302 -0.812098 
-0.797853 -0.500000 -3.144927 -0.225196 0.000000 -0.974303 
-0.797853 -0.898926 -3.144927 -0.066164 -0.564165 -0.822962 
-0.595706 -0.500000 -3.285044 -0.586291 0.000000 -0.810083 
-0.595706 -0.797853 -3.285044 -0.337016 -0.476302 -0.812098 
-0.000000 -0.898926 -3.144927 0.000000 -0.810999 -0.585009 
-0.000000 -0.797853 -3.285044 0.000000 -0.822657 -0.568499 
-0.000000 -1.000000 -3.004810 0.000000 -0.936369 -0.350932 
-0.000000 -0.744981 -3.363230 0.000000 -0.828364 -0.560167 
0.489963 -0.744981 -3.363230 0.349040 -0.486343 -0.800989 
-0.000000 -0.692109 -3.441416 0.000000 0.767937 -0.640492 
0.384219 -0.692109 -3.441416 -0.277596 -0.224799 -0.934019 
-0.489963 -0.744981 -3.363230 -0.349040 -0.486343 -0.800989 
-0.384219 -0.692109 -3.441416 -0.068575 0.124516 -0.989837 
-0.489963 -0.500000 -3.363230 -0.594501 0.000000 -0.804071 
-0.384219 -0.500000 -3.441416 0.747703 0.000000 -0.663991 
-0.489963 -0.255018 -3.363230 -0.349040 0.486343 -0.800989 
-0.384219 -0.307890 -3.441416 0.277596 0.224799 -0.934019 
0.489963 -0.500000 -3.363230 0.594501 0.000000 -0.804071 
0.489963 -0.255019 -3.363230 0.349040 0.486343 -0.800989 
0.384219 -0.500000 -3.441416 -0.747703 0.000000 -0.663991 
0.384219 -0.307890 -3.441416 0.068575 -0.124516 -0.989837 
-0.000000 -0.255019 -3.363230 0.000000 0.828364 -0.560167 
-0.000000 -0.307890 -3.441416 0.000000 -0.767937 -0.640492 
-0.000000 -0.307890 -3.220602 0.000000 -1.000000 0.000000 
-0.384219 -0.307890 -3.220602 0.707083 -0.707083 0.000000 
-0.000000 -0.307890 -2.999787 0.000000 -0.707083 -0.707083 
-0.384219 -0.307890 -2.999787 0.333323 -0.666646 -0.666646 
0.384219 -0.307890 -3.220602 -0.707083 -0.707083 0.000000 
0.384219 -0.307890 -2.999787 -0.816492 -0.408246 -0.408246 
0.384219 -0.500000 -3.220602 -1.000000 0.000000 0.000000 
0.384219 -0.500000 -2.999787 -0.707083 0.000000 -0.707083 
0.384219 -0.692109 -3.220602 -0.707083 0.707083 0.000000 
0.384219 -0.692109 -2.999787 -0.333323 0.666646 -0.666646 
-0.384219 -0.500000 -3.220602 1.000000 0.000000 0.000000 
-0.384219 -0.692109 -3.220602 0.707083 0.707083 0.000000 
-0.384219 -0.500000 -2.999787 0.707083 0.000000 -0.707083 
-0.384219 -0.692109 -2.999787 0.816492 0.408246 -0.408246 
-0.000000 -0.692109 -3.220602 0.000000 1.000000 0.000000 
-0.000000 -0.692109 -2.999787 0.000000 0.707083 -0.707083 
-0.000000 -0.500000 -2.999787 0.000000 0.000000 -1.000000 
0.000000 1.168507 0.832762 0.000000 0.994995 0.099765 
0.000000 1.000000 1.665524 0.000000 0.960845 0.277017 
-0.000000 -1.000000 -1.502405 0.000000 -1.000000 0.000000 
0.000000 0.500000 2.335167 0.000000 0.801263 0.598285 
0.000000 0.136134 -3.004810 0.000000 0.000000 -1.000000 
3 0 1 2 
3 0 2 3 
3 4 0 3 
3 4 3 5 
3 5 3 2 
3 5 2 6 
3 6 2 1 
3 6 1 7 
3 7 1 0 
3 7 0 4 
3 8 9 10 
3 8 10 11 
3 12 8 11 
3 12 11 13 
3 13 11 10 
3 13 10 14 
3 14 10 9 
3 14 9 15 
3 15 9 8 
3 15 8 12 
3 16 12 13 
3 16 13 17 
3 17 13 14 
3 17 14 18 
3 18 14 15 
3 18 15 19 
3 19 15 12 
3 19 12 16 
3 20 4 5 
3 20 5 21 
3 21 5 6 
3 21 6 22 
3 22 6 7 
3 22 7 23 
3 23 7 4 
3 23 4 20 
3 24 22 25 
3 22 23 25 
3 26 24 25 
3 26 25 27 
3 27 25 20 
3 25 23 20 
3 21 22 24 
3 21 24 26 
3 18 19 28 
3 18 28 29 
3 17 18 29 
3 17 29 30 
3 30 29 28 
3 30 28 31 
3 31 28 16 
3 28 19 16 
3 32 33 34 
3 32 34 35 
3 36 32 35 
3 36 35 37 
3 35 34 38 
3 34 39 38 
3 37 35 40 
3 35 38 40 
3 32 30 41 
3 32 41 33 
3 30 31 41 
3 31 42 41 
3 36 17 30 
3 36 30 32 
3 31 43 42 
3 43 44 42 
3 43 45 44 
3 45 46 44 
3 16 47 31 
3 47 43 31 
3 47 48 43 
3 48 45 43 
3 49 50 51 
3 50 52 51 
3 50 44 52 
3 44 46 52 
3 53 54 49 
3 54 50 49 
3 54 42 50 
3 42 44 50 
3 55 56 57 
3 56 26 57 
3 56 58 26 
3 58 21 26 
3 59 60 55 
3 60 56 55 
3 60 61 56 
3 61 58 56 
3 62 63 64 
3 65 63 62 
3 62 66 65 
3 66 67 65 
3 59 55 64 
3 55 62 64 
3 55 57 62 
3 57 66 62 
3 68 27 38 
3 68 38 39 
3 27 20 38 
3 20 40 38 
3 57 26 68 
3 26 27 68 
3 69 70 71 
3 69 71 72 
3 70 73 71 
3 73 74 71 
3 57 68 70 
3 57 70 69 
3 68 39 70 
3 39 73 70 
3 66 75 67 
3 75 76 67 
3 75 77 76 
3 77 78 76 
3 57 69 66 
3 69 75 66 
3 69 72 75 
3 72 77 75 
3 73 79 74 
3 79 80 74 
3 79 81 80 
3 81 82 80 
3 39 83 73 
3 83 79 73 
3 83 84 79 
3 84 81 79 
3 85 86 81 
3 85 81 84 
3 86 87 82 
3 86 82 81 
3 67 76 85 
3 76 86 85 
3 76 78 86 
3 78 87 86 
3 87 88 82 
3 88 80 82 
3 88 71 74 
3 88 74 80 
3 78 77 88 
3 78 88 87 
3 77 72 88 
3 72 71 88 
3 89 90 91 
3 90 92 91 
3 90 93 92 
3 93 94 92 
3 42 54 89 
3 54 90 89 
3 54 53 90 
3 53 93 90 
3 41 95 33 
3 95 96 33 
3 95 97 96 
3 97 98 96 
3 42 89 95 
3 42 95 41 
3 89 91 97 
3 89 97 95 
3 99 100 101 
3 100 102 101 
3 100 103 102 
3 103 104 102 
3 33 96 99 
3 96 100 99 
3 96 98 100 
3 98 103 100 
3 93 105 94 
3 105 106 94 
3 105 102 104 
3 105 104 106 
3 53 107 93 
3 107 105 93 
3 107 101 102 
3 107 102 105 
3 103 108 104 
3 108 106 104 
3 108 92 94 
3 108 94 106 
3 98 97 108 
3 98 108 103 
3 97 91 108 
3 91 92 108 
3 109 110 111 
3 109 111 21 
3 110 112 113 
3 110 113 111 
3 16 114 109 
3 114 110 109 
3 114 115 110 
3 115 112 110 
3 20 116 117 
3 20 117 40 
3 116 118 119 
3 116 119 117 
3 21 111 20 
3 111 116 20 
3 111 113 116 
3 113 118 116 
3 17 120 114 
3 17 114 16 
3 120 121 115 
3 120 115 114 
3 36 122 17 
3 122 120 17 
3 122 123 120 
3 123 121 120 
3 37 124 122 
3 37 122 36 
3 124 125 122 
3 125 123 122 
3 40 117 37 
3 117 124 37 
3 117 119 125 
3 117 125 124 
3 125 126 123 
3 126 121 123 
3 126 112 121 
3 112 115 121 
3 119 118 126 
3 119 126 125 
3 118 113 112 
3 118 112 126 
3 127 128 46 
3 128 129 46 
3 128 130 129 
3 130 131 129 
3 59 132 128 
3 59 128 127 
3 132 133 130 
3 132 130 128 
3 132 134 133 
3 134 135 133 
3 134 136 135 
3 136 137 135 
3 59 64 132 
3 64 134 132 
3 64 63 134 
3 63 136 134 
3 52 138 51 
3 138 139 51 
3 138 140 139 
3 140 141 139 
3 46 129 52 
3 129 138 52 
3 129 131 138 
3 131 140 138 
3 136 142 137 
3 142 143 137 
3 142 139 141 
3 142 141 143 
3 63 144 136 
3 144 142 136 
3 144 51 139 
3 144 139 142 
3 143 145 146 
3 143 146 137 
3 145 147 148 
3 145 148 146 
3 141 149 145 
3 141 145 143 
3 149 150 147 
3 149 147 145 
3 130 151 131 
3 151 152 131 
3 151 153 152 
3 153 154 152 
3 133 155 151 
3 133 151 130 
3 155 156 153 
3 155 153 151 
3 157 158 147 
3 157 147 150 
3 158 159 148 
3 158 148 147 
3 154 153 158 
3 154 158 157 
3 153 156 159 
3 153 159 158 
3 160 161 135 
3 160 135 137 
3 161 162 133 
3 161 133 135 
3 163 164 161 
3 163 161 160 
3 164 165 162 
3 164 162 161 
3 166 167 148 
3 167 146 148 
3 167 160 137 
3 167 137 146 
3 168 169 167 
3 168 167 166 
3 169 163 167 
3 163 160 167 
3 170 171 159 
3 170 159 156 
3 171 166 148 
3 171 148 159 
3 172 173 171 
3 172 171 170 
3 173 168 166 
3 173 166 171 
3 162 174 155 
3 162 155 133 
3 174 170 156 
3 174 156 155 
3 165 175 174 
3 165 174 162 
3 175 172 170 
3 175 170 174 
3 175 176 173 
3 175 173 172 
3 176 169 173 
3 169 168 173 
3 165 164 175 
3 164 176 175 
3 164 163 169 
3 164 169 176 
3 177 178 140 
3 177 140 131 
3 178 179 141 
3 178 141 140 
3 180 181 178 
3 180 178 177 
3 181 182 179 
3 181 179 178 
3 183 184 152 
3 183 152 154 
3 184 177 131 
3 184 131 152 
3 185 186 184 
3 185 184 183 
3 186 180 177 
3 186 177 184 
3 187 188 157 
3 187 157 150 
3 188 183 154 
3 188 154 157 
3 189 190 188 
3 189 188 187 
3 190 185 183 
3 190 183 188 
3 179 191 149 
3 179 149 141 
3 191 187 150 
3 191 150 149 
3 182 192 191 
3 182 191 179 
3 192 189 187 
3 192 187 191 
3 181 193 192 
3 181 192 182 
3 193 190 189 
3 193 189 192 
3 180 186 193 
3 180 193 181 
3 186 185 190 
3 186 190 193 
3 194 195 196 
3 195 197 196 
3 195 198 199 
3 195 199 197 
3 53 200 194 
3 200 195 194 
3 200 67 198 
3 200 198 195 
3 85 201 198 
3 85 198 67 
3 201 202 199 
3 201 199 198 
3 84 203 85 
3 203 201 85 
3 203 204 201 
3 204 202 201 
3 107 205 206 
3 107 206 101 
3 205 207 208 
3 205 208 206 
3 53 194 107 
3 194 205 107 
3 194 196 205 
3 196 207 205 
3 203 209 204 
3 209 210 204 
3 209 206 208 
3 209 208 210 
3 84 211 203 
3 211 209 203 
3 211 101 206 
3 211 206 209 
3 210 212 213 
3 210 213 204 
3 212 214 215 
3 212 215 213 
3 208 216 210 
3 216 212 210 
3 216 217 212 
3 217 214 212 
3 207 218 216 
3 207 216 208 
3 218 219 217 
3 218 217 216 
3 196 220 207 
3 220 218 207 
3 220 221 218 
3 221 219 218 
3 202 222 223 
3 202 223 199 
3 222 224 225 
3 222 225 223 
3 204 213 202 
3 213 222 202 
3 213 215 222 
3 215 224 222 
3 197 226 220 
3 197 220 196 
3 226 227 221 
3 226 221 220 
3 199 223 197 
3 223 226 197 
3 223 225 226 
3 225 227 226 
3 227 228 229 
3 227 229 221 
3 228 230 231 
3 228 231 229 
3 225 232 228 
3 225 228 227 
3 232 233 230 
3 232 230 228 
3 224 234 232 
3 224 232 225 
3 234 235 233 
3 234 233 232 
3 215 236 234 
3 215 234 224 
3 236 237 235 
3 236 235 234 
3 219 238 239 
3 219 239 217 
3 238 240 241 
3 238 241 239 
3 221 229 238 
3 221 238 219 
3 229 231 240 
3 229 240 238 
3 214 242 236 
3 214 236 215 
3 242 243 237 
3 242 237 236 
3 217 239 242 
3 217 242 214 
3 239 241 243 
3 239 243 242 
3 240 244 243 
3 240 243 241 
3 244 235 237 
3 244 237 243 
3 231 230 244 
3 231 244 240 
3 230 233 235 
3 230 235 244 
3 45 245 127 
3 45 127 46 
3 245 60 127 
3 60 59 127 
3 48 246 45 
3 246 245 45 
3 246 61 60 
3 246 60 245 
3 99 247 34 
3 99 34 33 
3 247 83 39 
3 247 39 34 
3 101 211 247 
3 101 247 99 
3 211 84 83 
3 211 83 247 
3 246 248 61 
3 248 58 61 
3 248 109 58 
3 109 21 58 
3 48 47 248 
3 48 248 246 
3 47 16 109 
3 47 109 248 
3 49 249 200 
3 49 200 53 
3 249 65 200 
3 65 67 200 
3 51 144 249 
3 51 249 49 
3 144 63 249 
3 63 65 249 
