ply
format ascii 1.0
comment Created by Blender3D 249 - www.blender.org, source file: 
element vertex 507
property float x
property float y
property float z
property float nx
property float ny
property float nz
element face 967
property list uchar uint vertex_indices
end_header
-0.736690 0.254494 -0.623632 -0.190283 0.002655 -0.981719 
-0.820053 0.251336 -0.525050 -0.846431 0.008087 -0.532395 
-0.791992 0.166905 -0.550385 -0.571642 0.604175 -0.555101 
0.051440 0.274380 -0.979651 0.846431 0.008087 -0.532395 
-0.077123 0.271934 -0.967684 0.190283 0.002655 -0.981719 
0.018149 0.188327 -0.972982 0.571642 0.604175 -0.555101 
-0.722274 0.135685 -0.611171 0.007294 0.813746 -0.581133 
-0.070210 0.152926 -0.951311 -0.007294 0.813746 -0.581133 
-0.657954 0.176868 -0.660775 0.598773 0.520127 -0.608997 
-0.149328 0.190317 -0.926092 -0.598773 0.520127 -0.608997 
-0.630986 0.256994 -0.676444 0.677328 0.009095 -0.735618 
-0.180908 0.268895 -0.911220 -0.677328 0.009095 -0.735618 
-0.660956 0.341536 -0.658184 0.606739 -0.504654 -0.614124 
-0.152331 0.354985 -0.923500 -0.606739 -0.504654 -0.614124 
-0.726722 0.379592 -0.607333 0.008667 -0.812128 -0.583361 
-0.074657 0.396834 -0.947472 -0.008667 -0.812128 -0.583361 
-0.795212 0.343542 -0.547605 -0.579211 -0.601428 -0.550218 
0.014929 0.364964 -0.970202 0.579211 -0.601428 -0.550218 
-0.391429 -0.801179 -0.627978 -0.397687 -0.677328 0.618885 
-0.340635 -0.885449 -0.619695 -0.200293 0.186682 0.961760 
-0.384594 -0.857619 -0.608807 -0.796503 0.339915 0.500015 
-0.219931 -0.853265 -0.694701 0.796503 0.339915 0.500015 
-0.252815 -0.883127 -0.665505 0.200293 0.186682 0.961760 
-0.234085 -0.797018 -0.710054 0.397687 -0.677328 0.618885 
-0.306808 0.454143 -0.594085 0.000000 0.835353 0.549669 
-0.424882 0.504846 -0.532159 -0.446455 0.893704 -0.043611 
-0.281164 0.601002 -0.537481 0.000000 0.609912 0.792444 
-0.190695 0.511038 -0.654319 0.446455 0.893704 -0.043611 
-0.416321 -0.297396 -0.311995 0.951567 -0.298227 0.074374 
-0.253065 -0.401066 -0.067894 0.548296 -0.835017 -0.045930 
-0.454187 -0.191595 0.038743 0.559496 -0.820734 0.115421 
0.322930 -0.171047 -0.366628 -0.559496 -0.820734 0.115421 
0.129319 -0.390955 -0.267358 -0.548296 -0.835017 -0.045930 
0.018206 -0.285906 -0.538659 -0.951567 -0.298227 0.074374 
-0.621512 -0.119267 -0.255164 0.490036 -0.856471 0.162145 
-0.457967 -0.184597 -0.393926 0.754784 -0.638691 0.149541 
-0.440262 -0.233220 -0.366913 0.832606 -0.333842 0.441847 
-0.015797 -0.221996 -0.588328 -0.832606 -0.333842 0.441847 
-0.029843 -0.173277 -0.617250 -0.754784 -0.638691 0.149541 
0.174620 -0.098216 -0.670453 -0.490036 -0.856471 0.162145 
0.010092 0.055754 0.750666 0.418744 -0.353221 -0.836573 
-0.192341 0.006968 0.703569 0.528581 -0.550340 -0.646290 
-0.046759 -0.171209 0.609344 0.461501 -0.712210 -0.528886 
0.557005 -0.155244 0.294400 -0.461501 -0.712210 -0.528886 
0.710011 0.030828 0.232871 -0.528581 -0.550340 -0.646290 
0.630931 0.072170 0.426815 -0.418744 -0.353221 -0.836573 
-0.650762 0.005868 0.399817 0.897946 -0.440077 -0.000824 
-0.596460 -0.049484 0.481341 0.580798 0.125797 0.804254 
-0.593507 0.025478 0.510147 0.909238 -0.054323 0.412641 
0.779903 0.061794 -0.206271 -0.909238 -0.054323 0.412641 
0.761094 -0.013588 -0.226805 -0.580798 0.125797 0.804254 
0.722996 0.042192 -0.316782 -0.897946 -0.440077 -0.000824 
-0.787677 0.314605 0.871311 0.459181 -0.252602 0.851650 
-0.828805 0.258192 0.874726 0.316111 0.217383 0.923460 
-0.880594 0.315492 0.991589 -0.003235 -0.278603 0.960387 
1.326497 0.373851 -0.159705 0.003235 -0.278603 0.960387 
1.203500 0.311929 -0.185394 -0.316111 0.217383 0.923460 
1.174860 0.366498 -0.152415 -0.459181 -0.252602 0.851650 
-0.923610 0.424548 1.083552 0.427168 0.532304 -0.730827 
-1.028486 0.260011 1.098487 0.981140 -0.016419 -0.192541 
-0.949178 0.072212 1.086319 0.358379 -0.357402 -0.862423 
1.453436 0.135741 -0.166966 -0.358379 -0.357402 -0.862423 
1.500918 0.326893 -0.220937 -0.981140 -0.016419 -0.192541 
1.421921 0.486568 -0.139957 -0.427168 0.532304 -0.730827 
0.908163 -0.072407 -0.111110 -0.017426 -0.738334 -0.674154 
0.797134 0.016426 0.050652 -0.364116 -0.629871 -0.686026 
0.648666 -0.106597 -0.181427 -0.361522 -0.930143 0.064028 
0.804358 -0.114770 -0.272206 -0.142033 -0.677999 0.721152 
-0.491167 -0.136736 0.413148 0.361522 -0.930143 0.064028 
-0.390877 -0.014987 0.670360 0.364116 -0.629871 -0.686026 
-0.583212 -0.111842 0.666842 0.017426 -0.738334 -0.674154 
-0.654188 -0.153336 0.488622 0.142033 -0.677999 0.721152 
0.992986 0.388773 -0.097953 0.517563 0.550493 -0.654988 
0.921281 0.292446 -0.004649 -0.573016 0.063753 -0.817042 
-0.518603 0.254373 0.746444 0.573016 0.063753 -0.817042 
-0.640051 0.345593 0.753895 -0.517563 0.550493 -0.654988 
0.954919 0.448129 -0.232715 0.145665 0.785485 0.601459 
0.869843 0.380234 -0.227032 -0.708823 0.521073 0.475417 
-0.675141 0.339383 0.578885 0.708823 0.521073 0.475417 
-0.731228 0.403545 0.646837 -0.145665 0.785485 0.601459 
1.205140 0.451066 -0.090080 0.378674 0.467971 -0.798486 
1.207129 -0.012315 -0.097106 0.064486 -0.603717 -0.794549 
-0.757397 0.399174 0.933646 -0.378674 0.467971 -0.798486 
-0.745040 -0.063933 0.921212 -0.064486 -0.603717 -0.794549 
1.111240 0.516756 -0.218398 0.037782 0.916807 0.397504 
-0.811656 0.465912 0.784650 -0.037782 0.916807 0.397504 
1.337853 0.544926 -0.219590 -0.354411 0.898770 0.257942 
-0.943276 0.484609 0.970324 0.354411 0.898770 0.257942 
1.448250 0.376475 -0.272889 -0.736412 0.215186 0.641346 
-1.043038 0.310602 1.026652 0.736412 0.215186 0.641346 
1.396750 0.106116 -0.243209 -0.715140 -0.462172 0.524308 
-0.978053 0.043323 0.995570 0.715140 -0.462172 0.524308 
1.122661 -0.067526 -0.228991 -0.513627 -0.738762 0.436323 
-0.802588 -0.118433 0.775284 0.513627 -0.738762 0.436323 
1.243914 0.254190 -0.195665 -0.460524 0.015412 0.887478 
1.391662 0.280390 -0.180514 0.499374 -0.103793 0.860134 
-0.857915 0.198614 0.900721 0.460524 0.015412 0.887478 
-0.930999 0.218975 1.031065 -0.499374 -0.103793 0.860134 
1.174295 0.215825 -0.181330 -0.361919 -0.081851 0.928587 
1.347088 0.140067 -0.171516 0.350475 0.373089 0.859035 
-0.892326 0.080854 0.996639 -0.350475 0.373089 0.859035 
-0.804795 0.163495 0.851031 0.361919 -0.081851 0.928587 
1.113956 0.151301 -0.171450 -0.439070 -0.074252 0.895352 
1.179986 0.045636 -0.156088 -0.248939 0.506455 0.825526 
-0.780286 -0.006197 0.866456 0.248939 0.506455 0.825526 
-0.759541 0.101763 0.805830 0.439070 -0.074252 0.895352 
1.041600 0.090444 -0.171131 -0.332530 0.161931 0.929075 
0.969951 0.010695 -0.203368 -0.025483 0.860042 0.509568 
-0.715413 0.043986 0.745387 0.332530 0.161931 0.929075 
-0.697587 -0.033398 0.666476 0.025483 0.860042 0.509568 
0.954937 0.043807 -0.150648 -0.297555 0.220679 0.928831 
0.920920 0.007923 -0.140299 -0.639912 0.239235 0.730247 
-0.617763 -0.032762 0.662330 0.639912 0.239235 0.730247 
-0.647171 0.001444 0.685067 0.297555 0.220679 0.928831 
0.947207 0.194945 -0.142181 -0.422926 -0.261025 0.867733 
0.990665 0.134962 -0.155064 -0.217719 0.043641 0.975005 
0.930188 0.104061 -0.137747 -0.521531 0.337565 0.783593 
0.879790 0.125297 -0.115430 -0.769311 0.198798 0.607135 
-0.624961 0.062941 0.673472 0.521531 0.337565 0.783593 
-0.674991 0.090919 0.713799 0.217719 0.043641 0.975005 
-0.642094 0.152921 0.686853 0.422926 -0.261025 0.867733 
-0.578756 0.086730 0.645397 0.769311 0.198798 0.607135 
1.064418 0.206335 -0.167086 -0.347331 -0.021424 0.937468 
0.987472 0.267290 -0.166233 -0.666494 -0.475051 0.574511 
-0.687820 0.222992 0.707656 0.666494 -0.475051 0.574511 
-0.729949 0.158889 0.768917 0.347331 -0.021424 0.937468 
1.130342 0.276511 -0.171188 -0.348827 0.101962 0.931608 
1.061764 0.323770 -0.170500 -0.608234 -0.324778 0.724235 
-0.736110 0.276232 0.767333 0.608234 -0.324778 0.724235 
-0.773892 0.226160 0.822125 0.348827 0.101962 0.931608 
1.149351 0.029542 -0.199796 0.088107 0.915738 0.391919 
0.945345 -0.003450 -0.255209 -0.162450 0.866298 0.472304 
-0.725433 -0.047628 0.616326 0.162450 0.866298 0.472304 
-0.797939 -0.021947 0.815977 -0.088107 0.915738 0.391919 
1.316004 0.124540 -0.191714 0.651418 0.728294 0.212592 
-0.890478 0.066197 0.959262 -0.651418 0.728294 0.212592 
1.364376 0.284016 -0.208246 0.985870 -0.042268 0.162053 
-0.938290 0.223129 0.992903 -0.985870 -0.042268 0.162053 
1.297935 0.400649 -0.190036 0.175542 -0.685018 0.707022 
-0.890250 0.342789 0.951396 -0.175542 -0.685018 0.707022 
1.133878 0.391479 -0.191022 -0.528184 -0.618275 0.581988 
-0.796946 0.340425 0.816162 0.528184 -0.618275 0.581988 
1.017348 0.346821 -0.215365 -0.672994 -0.509110 0.536515 
-0.748465 0.300130 0.705744 0.672994 -0.509110 0.536515 
0.888232 0.004461 -0.183051 -0.468337 0.686575 0.556078 
-0.633985 -0.035789 0.610989 0.468337 0.686575 0.556078 
0.913695 0.043793 -0.178797 -0.794671 0.025056 0.606464 
-0.646681 0.002534 0.635148 0.794671 0.025056 0.606464 
0.897651 0.107000 -0.165375 -0.552873 0.687490 0.470779 
-0.629139 0.066629 0.631050 0.552873 0.687490 0.470779 
0.848087 0.120330 -0.151459 -0.808252 0.003723 0.588794 
-0.589968 0.082306 0.598679 0.808252 0.003723 0.588794 
0.911406 0.202730 -0.175449 -0.718192 -0.595782 0.359478 
-0.649232 0.161464 0.638633 0.718192 -0.595782 0.359478 
0.951626 0.277582 -0.210173 -0.708731 -0.482376 0.514756 
-0.703784 0.233811 0.653345 0.708731 -0.482376 0.514756 
0.844959 0.230335 -0.224423 -0.842280 -0.377117 0.385083 
0.809570 0.361823 -0.387906 -0.997986 -0.060060 -0.020295 
-0.771803 0.320009 0.436992 0.997986 -0.060060 -0.020295 
-0.652558 0.190738 0.556733 0.842280 -0.377117 0.385083 
0.897802 0.326587 -0.237660 -0.456954 -0.224586 0.860653 
-0.697598 0.284402 0.594555 0.456954 -0.224586 0.860653 
0.961786 0.399977 -0.261277 -0.400220 -0.006317 0.916379 
-0.756562 0.354541 0.635071 0.400220 -0.006317 0.916379 
0.865113 -0.049186 -0.293333 -0.371441 0.372539 0.850398 
-0.708942 -0.090807 0.527748 0.371441 0.372539 0.850398 
0.628908 -0.012683 -0.459333 -0.741569 -0.662038 0.108371 
0.737140 0.270412 -0.501630 -0.984710 -0.126957 0.119083 
-0.819838 0.229243 0.310543 0.984710 -0.126957 0.119083 
-0.711570 -0.048127 0.239905 0.741569 -0.662038 0.108371 
1.081613 0.455711 -0.244063 -0.548784 -0.037477 0.835109 
-0.813229 0.405608 0.744352 0.548784 -0.037477 0.835109 
1.285386 0.477690 -0.236336 -0.309030 -0.105594 0.945158 
-0.924232 0.419264 0.916276 0.309030 -0.105594 0.945158 
1.373905 0.325654 -0.256531 0.183599 -0.133702 0.973846 
-0.985042 0.263279 0.973977 -0.183599 -0.133702 0.973846 
1.315365 0.111613 -0.236962 0.172430 0.395611 0.902066 
-0.926663 0.052330 0.932556 -0.172430 0.395611 0.902066 
1.105720 -0.011772 -0.249074 -0.450423 0.386792 0.804651 
-0.811687 -0.062471 0.751111 0.450423 0.386792 0.804651 
0.526483 -0.176183 -0.028565 -0.516953 -0.821009 -0.242195 
0.395438 -0.308097 0.045668 -0.518021 -0.838466 -0.168981 
-0.151975 -0.322571 0.331217 0.518021 -0.838466 -0.168981 
-0.293172 -0.197856 0.398995 0.516953 -0.821009 -0.242195 
0.842512 0.348761 0.208485 -0.602069 -0.073061 -0.795068 
0.715878 0.485439 0.410783 -0.401257 0.262795 -0.877438 
-0.068753 0.464692 0.820074 0.401257 0.262795 -0.877438 
-0.301242 0.318519 0.805105 0.602069 -0.073061 -0.795068 
0.377245 0.017474 -0.699185 -0.604236 -0.796686 0.011353 
-0.765637 -0.012746 -0.103019 0.604236 -0.796686 0.011353 
0.781132 0.650675 -0.298318 -0.885037 0.465407 -0.005585 
0.888574 0.576788 -0.070794 -0.849666 0.337687 -0.404950 
-0.565947 0.538328 0.687934 0.849666 0.337687 -0.404950 
-0.694125 0.611667 0.471226 0.885037 0.465407 -0.005585 
0.667477 0.588005 -0.514913 -0.811823 0.463515 0.355052 
-0.804120 0.549094 0.252723 0.811823 0.463515 0.355052 
0.519291 0.443842 -0.687998 -0.836604 0.534745 0.118656 
-0.855338 0.407494 0.029055 0.836604 0.534745 0.118656 
0.542767 0.203458 -0.736280 -0.966399 -0.250557 -0.057375 
0.502875 0.437751 -0.844776 -0.782128 0.537645 -0.314920 
-0.974211 0.398694 -0.074278 0.782128 0.537645 -0.314920 
-0.898337 0.165353 0.015450 0.966399 -0.250557 -0.057375 
0.181103 0.589772 -0.634631 -0.277810 0.858333 0.431349 
0.154577 0.602427 -0.776039 -0.190008 0.830256 -0.523911 
-0.725716 0.579151 -0.316848 0.190008 0.830256 -0.523911 
-0.624438 0.568472 -0.214433 0.277810 0.858333 0.431349 
0.012673 0.728876 -0.756752 -0.226844 0.766625 -0.600665 
-0.126487 0.698428 -0.710715 0.484146 0.556810 -0.674886 
-0.515579 0.688140 -0.507751 -0.484146 0.556810 -0.674886 
-0.634086 0.711774 -0.419380 0.226844 0.766625 -0.600665 
0.282714 0.886218 -0.427149 -0.423200 0.764031 0.486923 
-0.160214 0.904894 -0.290208 0.000000 0.778344 0.627796 
-0.524744 0.864868 -0.005951 0.423200 0.764031 0.486923 
0.444016 0.532173 -0.593456 -0.548112 0.722800 0.420820 
0.381590 0.504692 -0.800087 -0.439833 0.889431 -0.124058 
-0.871067 0.471570 -0.146658 0.439833 0.889431 -0.124058 
-0.738507 0.500905 0.023389 0.548112 0.722800 0.420820 
0.557847 0.758330 -0.378652 -0.654225 0.690970 0.307413 
-0.636873 0.726740 0.244555 0.654225 0.690970 0.307413 
0.437418 0.968720 -0.168056 -0.451796 0.890591 0.052034 
0.681150 0.801571 -0.140825 -0.676138 0.726798 -0.120579 
-0.404191 0.946467 0.270957 0.451796 0.890591 0.052034 
-0.514180 0.769964 0.482700 0.676138 0.726798 -0.120579 
0.568941 0.903447 0.121694 -0.349254 0.830439 -0.434004 
0.793492 0.707684 0.090614 -0.613514 0.520371 -0.593951 
-0.239126 0.882080 0.543209 0.349254 0.830439 -0.434004 
-0.384762 0.676529 0.705232 0.613514 0.520371 -0.593951 
0.246676 0.893508 0.489243 0.000000 0.787744 -0.615986 
0.386166 0.564504 0.739977 0.000000 0.334452 -0.942381 
0.020068 1.015524 0.061009 0.000000 0.999573 0.028199 
0.387569 0.112332 0.719745 0.000000 -0.218451 -0.975829 
0.035075 -0.433970 -0.376549 -0.674673 -0.555712 -0.485733 
0.025178 -0.371280 -0.540558 -0.941496 0.140660 -0.306223 
-0.418314 -0.383006 -0.309217 0.941496 0.140660 -0.306223 
-0.286932 -0.442484 -0.208579 0.674673 -0.555712 -0.485733 
-0.076567 -0.471481 -0.199621 0.000000 -0.971038 -0.238899 
-0.129967 -0.509699 -0.303929 0.000000 -0.674734 -0.738029 
0.162123 -0.381318 0.262530 0.000000 -0.947539 -0.319559 
0.321915 -0.178808 0.579125 0.000000 -0.651540 -0.758568 
0.135210 -0.124559 -0.740323 -0.354839 -0.927274 0.119144 
-0.076816 -0.179991 -0.682341 -0.762993 -0.506760 0.401257 
-0.484204 -0.190763 -0.469834 0.762993 -0.506760 0.401257 
-0.655171 -0.145458 -0.328033 0.354839 -0.927274 0.119144 
-0.055284 -0.252894 -0.666867 -0.971679 0.131382 0.196387 
-0.480793 -0.264145 -0.444907 0.971679 0.131382 0.196387 
-0.031413 -0.327857 -0.680178 -0.945982 0.264595 0.187201 
0.011508 -0.466593 -0.714302 -0.965209 0.205603 0.161504 
-0.548956 -0.481413 -0.421946 0.965209 0.205603 0.161504 
-0.502227 -0.340306 -0.434585 0.945982 0.264595 0.187201 
0.047814 -0.524507 -0.534542 -0.828211 0.007691 -0.560320 
0.052446 -0.716422 -0.732562 -0.983276 0.091617 0.157353 
-0.576932 -0.733064 -0.404257 0.983276 0.091617 0.157353 
-0.419950 -0.536876 -0.290540 0.828211 0.007691 -0.560320 
-0.041310 -0.571430 -0.433227 -0.294046 -0.270425 -0.916715 
-0.284036 -0.577848 -0.306613 0.294046 -0.270425 -0.916715 
-0.043729 -0.976940 -0.536543 -0.089969 -0.752708 -0.652150 
0.106592 -0.936940 -0.581904 -0.531297 -0.446394 -0.719993 
-0.032301 -0.790419 -0.458305 -0.149022 -0.171667 -0.973785 
0.083404 -0.741427 -0.550970 -0.676046 0.067354 -0.733726 
-0.444737 -0.755392 -0.275474 0.676046 0.067354 -0.733726 
-0.475216 -0.952324 -0.278412 0.531297 -0.446394 -0.719993 
-0.300640 -0.797514 -0.318330 0.149022 -0.171667 -0.973785 
-0.350490 -0.985051 -0.376527 0.089969 -0.752708 -0.652150 
0.084874 -0.912285 -0.713062 -0.952208 -0.233161 0.197211 
-0.571338 -0.929636 -0.370759 0.952208 -0.233161 0.197211 
0.053209 -0.981306 -0.684706 -0.465438 -0.883755 0.048189 
-0.527136 -0.996652 -0.381979 0.465438 -0.883755 0.048189 
-0.091045 -1.009092 -0.647481 -0.159856 -0.979797 0.120121 
-0.413052 -1.017607 -0.479511 0.159856 -0.979797 0.120121 
-0.210303 -1.016598 -0.483632 0.000000 -0.905209 -0.424909 
-0.264695 -1.026609 -0.588411 0.000000 -0.955290 0.295572 
-0.159847 -0.851811 -0.378552 0.000000 -0.358959 -0.933348 
-0.149133 -0.619156 -0.346219 0.000000 -0.195074 -0.980773 
0.316480 -0.005985 -0.837697 -0.600909 -0.750084 0.276131 
-0.843478 -0.036656 -0.232624 0.600909 -0.750084 0.276131 
0.525319 0.193227 -0.849860 -0.910306 -0.413831 -0.007019 
-0.981041 0.153397 -0.064091 0.910306 -0.413831 -0.007019 
0.487606 0.451771 -0.979288 -0.883938 0.190619 0.426954 
-1.076324 0.410418 -0.163489 0.883938 0.190619 0.426954 
0.346188 0.528635 -0.944332 -0.551317 0.822138 0.141758 
-0.970069 0.493831 -0.257728 0.551317 0.822138 0.141758 
0.106552 0.648694 -0.904024 -0.596545 0.763115 0.248482 
-0.805105 0.624588 -0.428472 0.596545 0.763115 0.248482 
-0.074553 0.789272 -0.851488 -0.158391 0.984710 0.072176 
-0.664412 0.773675 -0.543798 0.158391 0.984710 0.072176 
-0.223630 0.747539 -0.812609 0.507248 0.778588 0.369396 
-0.545637 0.739024 -0.644639 -0.507248 0.778588 0.369396 
-0.301766 0.544251 -0.759909 0.832667 0.535417 0.141270 
-0.449352 0.540348 -0.682923 -0.832667 0.535417 0.141270 
-0.370213 0.462894 -0.715193 0.000000 0.952879 0.303323 
-0.183280 0.195347 -0.832443 -0.606098 0.213813 0.766076 
-0.203504 0.175134 -0.841307 -0.000610 -0.040193 0.999176 
-0.223984 0.244074 -0.838064 -0.256783 -0.038942 0.965667 
-0.192852 0.255490 -0.827656 -0.714682 -0.031831 0.698691 
-0.545381 0.235576 -0.670412 0.256783 -0.038942 0.965667 
-0.556876 0.165791 -0.656977 0.000610 -0.040193 0.999176 
-0.562005 0.185333 -0.634888 0.606098 0.213813 0.766076 
-0.555111 0.245911 -0.638690 0.714682 -0.031831 0.698691 
-0.218270 0.321113 -0.841807 -0.437269 -0.094913 0.894284 
-0.192945 0.329404 -0.834132 -0.635395 -0.219520 0.740287 
-0.554914 0.312212 -0.666202 0.437269 -0.094913 0.894284 
-0.563437 0.319607 -0.640871 0.635395 -0.219520 0.740287 
-0.192294 0.405322 -0.854705 -0.229652 -0.119083 0.965941 
-0.158692 0.395350 -0.852177 -0.311960 -0.299417 0.901639 
-0.583826 0.394970 -0.650468 0.229652 -0.119083 0.965941 
-0.600538 0.383667 -0.621696 0.311960 -0.299417 0.901639 
-0.138995 0.142383 -0.859606 -0.368511 0.438643 0.819605 
-0.163239 0.127617 -0.867769 -0.069124 -0.057192 0.995941 
-0.599596 0.116079 -0.640150 0.069124 -0.057192 0.995941 
-0.607370 0.129999 -0.615286 0.368511 0.438643 0.819605 
-0.003642 0.110312 -0.895276 -0.133366 0.458846 0.878445 
-0.026848 0.087934 -0.899604 -0.195654 -0.108798 0.974609 
-0.701966 0.070083 -0.547440 0.195654 -0.108798 0.974609 
-0.712607 0.091566 -0.525456 0.133366 0.458846 0.878445 
0.085893 0.145266 -0.913451 0.051424 0.469893 0.881191 
0.090215 0.126402 -0.928019 -0.232917 0.041841 0.971587 
-0.793737 0.103029 -0.466919 0.232917 0.041841 0.971587 
-0.780111 0.122368 -0.461713 -0.051424 0.469893 0.881191 
0.172967 0.238317 -0.926332 0.125431 0.197974 0.972137 
0.197232 0.219603 -0.942369 -0.335612 -0.125034 0.933653 
-0.870515 0.191370 -0.385396 0.335612 -0.125034 0.933653 
-0.844284 0.211419 -0.395699 -0.125431 0.197974 0.972137 
0.184062 0.315902 -0.927913 0.270272 -0.132267 0.953642 
0.207312 0.323056 -0.951060 -0.156835 -0.095126 0.983001 
-0.887696 0.294102 -0.379866 0.156835 -0.095126 0.983001 
-0.855143 0.288423 -0.385828 -0.270272 -0.132267 0.953642 
0.148265 0.375380 -0.926559 0.081545 -0.553270 0.828974 
0.166946 0.395036 -0.946894 -0.317667 -0.031159 0.947661 
-0.864210 0.367770 -0.409008 0.317667 -0.031159 0.947661 
-0.836052 0.349353 -0.413105 -0.081545 -0.553270 0.828974 
0.012328 0.429561 -0.925487 0.136998 -0.629627 0.764672 
0.022905 0.435341 -0.945987 -0.140690 -0.293191 0.945616 
-0.782845 0.414036 -0.525680 0.140690 -0.293191 0.945616 
-0.759758 0.409145 -0.522740 -0.136998 -0.629627 0.764672 
-0.059637 0.443740 -0.893086 -0.129063 -0.238533 0.962493 
-0.059740 0.465651 -0.898550 -0.138157 -0.059603 0.988586 
-0.698004 0.448774 -0.565610 0.138157 -0.059603 0.988586 
-0.692674 0.427002 -0.562872 0.129063 -0.238533 0.962493 
-0.115339 0.435787 -0.878622 -0.185339 -0.212867 0.959319 
-0.129207 0.457726 -0.878428 -0.193854 -0.069582 0.978545 
-0.641492 0.444181 -0.611203 0.193854 -0.069582 0.978545 
-0.648663 0.421685 -0.600422 0.185339 -0.212867 0.959319 
-0.232871 0.442723 -0.832384 -0.269417 -0.186407 0.944792 
-0.156512 0.511091 -0.861741 -0.249428 -0.181738 0.951170 
-0.614432 0.498983 -0.622875 0.249428 -0.181738 0.951170 
-0.543901 0.434499 -0.670140 0.269417 -0.186407 0.944792 
-0.066509 0.521629 -0.886687 -0.148930 -0.144566 0.978210 
-0.686739 0.505229 -0.563154 0.148930 -0.144566 0.978210 
0.052135 0.476534 -0.916946 -0.237861 -0.016968 0.971129 
-0.777452 0.454599 -0.484205 0.237861 -0.016968 0.971129 
0.229498 0.413036 -0.946749 -0.285562 -0.224921 0.931578 
-0.900577 0.383155 -0.357263 0.285562 -0.224921 0.931578 
0.279994 0.332291 -0.948532 -0.368450 -0.139927 0.919034 
-0.927534 0.300362 -0.318645 0.368450 -0.139927 0.919034 
0.259406 0.217996 -0.938734 -0.463210 -0.179571 0.867824 
-0.902991 0.187260 -0.332388 0.463210 -0.179571 0.867824 
0.134821 0.089888 -0.902074 -0.430250 -0.382092 0.817835 
-0.796439 0.065264 -0.416297 0.430250 -0.382092 0.817835 
0.008863 0.042086 -0.874985 -0.225349 -0.534227 0.814722 
-0.700285 0.023335 -0.505069 0.225349 -0.534227 0.814722 
-0.168589 0.098239 -0.827617 0.075869 -0.352306 0.932768 
-0.562408 0.087826 -0.622188 -0.075869 -0.352306 0.932768 
-0.230700 0.159248 -0.804199 0.125065 -0.216376 0.968230 
-0.510261 0.151856 -0.658370 -0.125065 -0.216376 0.968230 
-0.267720 0.333568 -0.808185 -0.042177 -0.159215 0.986328 
-0.499620 0.327436 -0.687218 0.042177 -0.159215 0.986328 
-0.252701 0.231100 -0.803448 0.201331 -0.157140 0.966826 
-0.500061 0.224559 -0.674416 -0.201331 -0.157140 0.966826 
-0.297399 -0.899684 -0.644672 0.000000 0.663076 0.748527 
-0.306532 -0.826336 -0.658464 0.000000 -0.555132 0.831751 
-0.334421 -0.806405 -0.710919 0.000000 -0.939085 0.343608 
-0.257673 -0.785261 -0.762864 0.152287 -0.592578 0.790948 
-0.421726 -0.789599 -0.677288 -0.152287 -0.592578 0.790948 
-0.243951 -0.857148 -0.749129 0.731834 0.009583 0.681356 
-0.415322 -0.861679 -0.659736 -0.731834 0.009583 0.681356 
-0.275121 -0.906361 -0.706895 0.383038 0.612659 0.691275 
-0.360850 -0.908628 -0.662175 -0.383038 0.612659 0.691275 
-0.318312 -0.917658 -0.685675 0.000000 0.612079 0.790765 
-0.261194 -0.924963 -0.723868 0.041688 -0.335246 0.941191 
-0.319045 -0.934154 -0.687918 0.000000 -0.078829 0.996887 
-0.381947 -0.928156 -0.660879 -0.041688 -0.335246 0.941191 
-0.212483 -0.873334 -0.764985 -0.137577 -0.344554 0.928617 
-0.445624 -0.879499 -0.643370 0.137577 -0.344554 0.928617 
-0.238089 -0.758233 -0.780177 -0.182897 -0.149846 0.971618 
-0.448230 -0.763789 -0.670560 0.182897 -0.149846 0.971618 
-0.344527 -0.793218 -0.729623 0.000000 -0.449477 0.893277 
-0.191414 -0.239215 -0.775358 -0.726371 -0.081179 0.682455 
-0.258628 -0.094442 -0.831185 -0.200598 -0.263649 0.943510 
-0.505884 -0.100980 -0.702208 0.200598 -0.263649 0.943510 
-0.492511 -0.247177 -0.618295 0.726371 -0.081179 0.682455 
-0.170744 -0.324713 -0.778970 -0.685049 0.129002 0.716971 
-0.503729 -0.333517 -0.605274 0.685049 0.129002 0.716971 
-0.139415 -0.469445 -0.795442 -0.625233 0.115390 0.771813 
-0.529117 -0.479749 -0.592160 0.625233 0.115390 0.771813 
-0.281814 -0.465035 -0.775160 -0.176092 -0.000977 0.984344 
-0.276638 -0.301844 -0.774184 -0.503037 -0.386547 0.772973 
-0.440255 -0.306170 -0.688836 0.503037 -0.386547 0.772973 
-0.431317 -0.468988 -0.697174 0.176092 -0.000977 0.984344 
-0.249508 -0.228111 -0.798581 -0.965423 -0.138585 0.220649 
-0.478816 -0.234174 -0.678966 0.965423 -0.138585 0.220649 
-0.269871 -0.151666 -0.781659 -0.671041 0.517228 0.531175 
-0.456488 -0.156600 -0.684313 0.671041 0.517228 0.531175 
-0.364550 -0.137154 -0.734752 -0.207129 0.452559 0.867336 
-0.361451 0.054302 -0.719106 0.000000 0.003998 0.999969 
-0.319085 -0.254140 -0.825844 -0.245064 -0.553423 0.795984 
-0.387719 -0.291722 -0.787005 0.000000 -0.528733 0.848781 
-0.399566 -0.211379 -0.805643 0.000000 0.024598 0.999695 
-0.305938 -0.222480 -0.854392 -0.296731 -0.119724 0.947417 
-0.460329 -0.257874 -0.752166 0.245064 -0.553423 0.795984 
-0.492556 -0.227414 -0.757046 0.296731 -0.119724 0.947417 
-0.306961 -0.160430 -0.836243 -0.413343 0.533189 0.738121 
-0.350262 -0.157402 -0.816424 0.184759 0.551561 0.813379 
-0.438814 -0.159743 -0.770232 -0.184759 0.551561 0.813379 
-0.479674 -0.164997 -0.746150 0.413343 0.533189 0.738121 
-0.268431 -0.225728 -0.840689 -0.850429 -0.223487 0.476211 
-0.294926 -0.278666 -0.809344 -0.533036 -0.663137 0.525407 
-0.502618 -0.231921 -0.718529 0.850429 -0.223487 0.476211 
-0.459589 -0.283020 -0.723450 0.533036 -0.663137 0.525407 
-0.279415 -0.142909 -0.815584 -0.758934 0.639302 0.123508 
-0.479206 -0.148192 -0.711366 0.758934 0.639302 0.123508 
-0.338947 -0.131868 -0.785848 0.084017 0.934812 0.345042 
-0.421279 -0.134045 -0.742901 -0.084017 0.934812 0.345042 
-0.385608 -0.183141 -0.777453 -0.190435 0.720695 0.666524 
-0.374717 -0.324198 -0.763724 0.000000 -0.768242 0.640126 
-0.358295 -0.352245 -0.733664 0.000000 -0.251473 0.967834 
-0.366150 -0.191920 -0.740596 -1.000000 0.000000 0.000000 
-0.232882 -0.693811 -0.785553 -0.229560 -0.041688 0.972381 
-0.347674 -0.694755 -0.730666 0.000000 -0.048494 0.998810 
-0.458287 -0.699771 -0.667974 0.229560 -0.041688 0.972381 
-0.357939 -0.472079 -0.739057 0.000000 -0.013581 0.999878 
-0.091739 -0.712832 -0.799716 -0.610431 -0.007782 0.792016 
-0.064883 -0.847425 -0.787792 -0.576220 -0.195379 0.793573 
-0.549724 -0.860245 -0.534882 0.576220 -0.195379 0.793573 
-0.549746 -0.724943 -0.560804 0.610431 -0.007782 0.792016 
-0.068730 -0.950355 -0.746069 -0.402356 -0.628895 0.665242 
-0.509051 -0.961997 -0.516382 0.402356 -0.628895 0.665242 
-0.154092 -0.971040 -0.711357 -0.168645 -0.758293 0.629688 
-0.430969 -0.978361 -0.566928 0.168645 -0.758293 0.629688 
-0.297422 -0.985645 -0.649075 0.000000 -0.750725 0.660604 
-0.378614 0.229867 -0.743109 0.000000 -0.182470 0.983184 
-0.404543 0.377944 -0.785312 0.000000 -0.053499 0.998566 
-0.315483 0.465827 -0.849918 0.038820 0.008515 0.999207 
-0.512033 0.460630 -0.747390 -0.038820 0.008515 0.999207 
0.044770 -0.029690 -0.848068 -0.349284 -0.541215 0.764885 
-0.695755 -0.049271 -0.461785 0.349284 -0.541215 0.764885 
0.260671 0.083179 -0.911595 -0.475082 -0.385144 0.791162 
-0.875868 0.053127 -0.318738 0.475082 -0.385144 0.791162 
0.378117 0.238928 -0.941176 -0.574175 -0.325205 0.751335 
-0.973687 0.203184 -0.236029 0.574175 -0.325205 0.751335 
0.359264 0.417864 -0.993864 -0.425367 -0.131352 0.895413 
-1.013536 0.381565 -0.277765 0.425367 -0.131352 0.895413 
0.256400 0.474509 -1.017058 -0.421155 -0.046022 0.905789 
-0.976131 0.441919 -0.374127 0.421155 -0.046022 0.905789 
0.018771 0.586373 -0.970363 -0.251747 -0.063784 0.965667 
-0.806739 0.564545 -0.539750 0.251747 -0.063784 0.965667 
-0.119652 0.679912 -0.938131 -0.258736 0.207801 0.943297 
-0.705119 0.664431 -0.632731 0.258736 0.207801 0.943297 
-0.236898 0.645841 -0.899449 0.205969 0.166570 0.964263 
-0.605010 0.636107 -0.707429 -0.205969 0.166570 0.964263 
0.032412 0.186573 -0.954359 0.661397 0.553148 -0.506485 
0.071178 0.274082 -0.959684 0.820215 0.004761 -0.572008 
-0.784803 0.164965 -0.528071 -0.661397 0.553148 -0.506485 
-0.814952 0.250651 -0.497449 -0.820215 0.004761 -0.572008 
-0.056067 0.152195 -0.927807 0.092196 0.873959 -0.477157 
-0.711059 0.134876 -0.586140 -0.092196 0.873959 -0.477157 
-0.134084 0.182450 -0.907087 -0.542131 0.728233 -0.419202 
-0.650759 0.168788 -0.637572 0.542131 0.728233 -0.419202 
-0.169181 0.268729 -0.887073 -0.871822 0.009980 -0.489700 
-0.617887 0.256864 -0.653012 0.871822 0.009980 -0.489700 
-0.137380 0.363213 -0.904243 -0.556078 -0.728202 -0.400586 
-0.654055 0.349552 -0.634727 0.556078 -0.728202 -0.400586 
-0.060532 0.397065 -0.923953 0.077975 -0.890622 -0.447981 
-0.715524 0.379746 -0.582287 -0.077975 -0.890622 -0.447981 
0.029139 0.366099 -0.951534 0.671957 -0.554796 -0.490524 
-0.788076 0.344490 -0.525246 -0.671957 -0.554796 -0.490524 
0.189411 0.275608 -0.919702 0.815912 0.002441 -0.578143 
0.113471 0.425075 -0.905921 0.604938 -0.499527 -0.620045 
-0.801322 0.400886 -0.428734 -0.604938 -0.499527 -0.620045 
-0.849794 0.248130 -0.377617 -0.815912 0.002441 -0.578143 
0.282276 0.276716 -0.860664 0.865902 0.004334 -0.500137 
0.205329 0.457042 -0.840927 0.722068 -0.468459 -0.509018 
-0.801859 0.430410 -0.315544 -0.722068 -0.468459 -0.509018 
-0.854507 0.246658 -0.267679 -0.865902 0.004334 -0.500137 
0.021040 0.536441 -0.786180 0.213691 -0.831233 -0.513169 
-0.034098 0.480211 -0.863112 0.086489 -0.736229 -0.671163 
-0.684212 0.463021 -0.523991 -0.086489 -0.736229 -0.671163 
-0.654992 0.518565 -0.433539 -0.213691 -0.831233 -0.513169 
-0.173802 0.407764 -0.819769 -0.476302 -0.479659 -0.736900 
-0.565857 0.397398 -0.615260 0.476302 -0.479659 -0.736900 
-0.162861 0.462460 -0.726187 -0.444227 -0.700888 -0.558031 
-0.497675 0.453607 -0.551537 0.444227 -0.700888 -0.558031 
-0.237860 0.274319 -0.698700 -0.815607 -0.112430 -0.567522 
-0.224838 0.255743 -0.788962 -0.713492 0.090945 -0.694723 
-0.505131 0.248332 -0.642752 0.713492 0.090945 -0.694723 
-0.424478 0.269385 -0.601354 0.815607 -0.112430 -0.567522 
-0.164378 0.123910 -0.830334 -0.402692 0.507187 -0.761925 
-0.568107 0.113235 -0.619735 0.402692 0.507187 -0.761925 
-0.162338 0.084207 -0.732306 -0.564135 0.640400 -0.521134 
-0.487273 0.075615 -0.562809 0.564135 0.640400 -0.521134 
-0.026473 0.062005 -0.869694 0.083529 0.747429 -0.659017 
0.030615 0.011276 -0.794445 0.202826 0.857448 -0.472854 
-0.676587 0.044815 -0.530572 -0.083529 0.747429 -0.659017 
-0.645417 -0.006599 -0.441803 -0.202826 0.857448 -0.472854 
0.118971 0.123458 -0.910668 0.604938 0.507614 -0.613453 
-0.795823 0.099269 -0.433481 -0.604938 0.507614 -0.613453 
0.211866 0.098506 -0.846570 0.725272 0.481887 -0.491623 
-0.795322 0.071874 -0.321186 -0.725272 0.481887 -0.491623 
3 0 1 2 
3 3 4 5 
3 6 0 2 
3 4 7 5 
3 0 6 8 
3 7 4 9 
3 0 8 10 
3 9 4 11 
3 0 10 12 
3 11 4 13 
3 0 12 14 
3 13 4 15 
3 0 14 16 
3 15 4 17 
3 0 16 1 
3 17 4 3 
3 18 19 20 
3 21 22 23 
3 24 25 26 
3 26 27 24 
3 28 29 30 
3 31 32 33 
3 34 35 36 
3 37 38 39 
3 40 41 42 
3 43 44 45 
3 46 47 48 
3 49 50 51 
3 52 53 54 
3 55 56 57 
3 58 59 60 
3 61 62 63 
3 64 65 66 
3 64 66 67 
3 68 69 70 
3 68 70 71 
3 64 72 73 
3 64 73 65 
3 74 75 70 
3 74 70 69 
3 76 77 72 
3 77 73 72 
3 74 78 75 
3 78 79 75 
3 61 63 80 
3 61 80 81 
3 82 58 60 
3 82 60 83 
3 64 81 72 
3 81 80 72 
3 82 83 75 
3 83 70 75 
3 80 84 72 
3 84 76 72 
3 79 85 75 
3 85 82 75 
3 63 86 80 
3 86 84 80 
3 85 87 82 
3 87 58 82 
3 62 88 63 
3 88 86 63 
3 87 89 58 
3 89 59 58 
3 61 90 62 
3 90 88 62 
3 89 91 59 
3 91 60 59 
3 81 92 90 
3 81 90 61 
3 91 93 83 
3 91 83 60 
3 64 67 92 
3 64 92 81 
3 93 71 70 
3 93 70 83 
3 94 56 55 
3 94 55 95 
3 54 53 96 
3 54 96 97 
3 98 94 99 
3 94 95 99 
3 97 96 100 
3 96 101 100 
3 102 98 103 
3 98 99 103 
3 100 101 104 
3 101 105 104 
3 106 102 103 
3 106 103 107 
3 104 105 108 
3 104 108 109 
3 106 107 110 
3 107 111 110 
3 112 109 113 
3 109 108 113 
3 114 115 116 
3 114 116 117 
3 118 119 120 
3 118 120 121 
3 115 114 122 
3 114 123 122 
3 124 120 125 
3 120 119 125 
3 126 122 127 
3 122 123 127 
3 124 125 128 
3 125 129 128 
3 126 127 57 
3 126 57 56 
3 52 128 129 
3 52 129 53 
3 94 98 56 
3 98 126 56 
3 129 101 53 
3 101 96 53 
3 98 102 122 
3 98 122 126 
3 125 105 101 
3 125 101 129 
3 102 106 122 
3 106 115 122 
3 119 108 125 
3 108 105 125 
3 106 110 115 
3 110 116 115 
3 118 113 119 
3 113 108 119 
3 103 130 107 
3 130 131 107 
3 132 133 109 
3 133 104 109 
3 99 134 103 
3 134 130 103 
3 133 135 104 
3 135 100 104 
3 95 136 99 
3 136 134 99 
3 135 137 100 
3 137 97 100 
3 55 138 136 
3 55 136 95 
3 137 139 54 
3 137 54 97 
3 57 140 138 
3 57 138 55 
3 139 141 52 
3 139 52 54 
3 127 142 140 
3 127 140 57 
3 141 143 128 
3 141 128 52 
3 107 131 144 
3 107 144 111 
3 145 132 109 
3 145 109 112 
3 111 144 146 
3 111 146 110 
3 147 145 112 
3 147 112 113 
3 110 146 116 
3 146 148 116 
3 149 147 118 
3 147 113 118 
3 116 148 117 
3 148 150 117 
3 151 149 121 
3 149 118 121 
3 117 150 152 
3 117 152 114 
3 153 151 121 
3 153 121 120 
3 114 152 123 
3 152 154 123 
3 155 153 124 
3 153 120 124 
3 123 154 142 
3 123 142 127 
3 143 155 124 
3 143 124 128 
3 49 51 156 
3 51 157 156 
3 158 46 159 
3 46 48 159 
3 160 156 77 
3 156 157 77 
3 158 159 78 
3 159 161 78 
3 154 160 142 
3 160 162 142 
3 163 161 143 
3 161 155 143 
3 152 156 154 
3 156 160 154 
3 161 159 155 
3 159 153 155 
3 49 156 150 
3 156 152 150 
3 153 159 151 
3 159 48 151 
3 146 49 150 
3 146 150 148 
3 151 48 147 
3 151 147 149 
3 50 49 144 
3 49 146 144 
3 147 48 145 
3 48 47 145 
3 144 131 164 
3 144 164 50 
3 165 132 145 
3 165 145 47 
3 162 160 77 
3 162 77 76 
3 78 161 163 
3 78 163 79 
3 51 166 167 
3 51 167 157 
3 168 169 46 
3 168 46 158 
3 164 67 50 
3 67 66 50 
3 68 71 47 
3 71 165 47 
3 50 66 51 
3 66 166 51 
3 169 68 46 
3 68 47 46 
3 142 162 170 
3 142 170 140 
3 171 163 143 
3 171 143 141 
3 138 140 172 
3 140 170 172 
3 171 141 173 
3 141 139 173 
3 136 138 174 
3 138 172 174 
3 173 139 175 
3 139 137 175 
3 134 136 176 
3 136 174 176 
3 175 137 177 
3 137 135 177 
3 130 134 176 
3 130 176 178 
3 177 135 133 
3 177 133 179 
3 131 130 178 
3 131 178 164 
3 179 133 132 
3 179 132 165 
3 164 178 92 
3 164 92 67 
3 93 179 165 
3 93 165 71 
3 178 176 92 
3 176 90 92 
3 91 177 93 
3 177 179 93 
3 176 174 90 
3 174 88 90 
3 89 175 91 
3 175 177 91 
3 174 172 88 
3 172 86 88 
3 87 173 89 
3 173 175 89 
3 172 170 84 
3 172 84 86 
3 85 171 173 
3 85 173 87 
3 162 76 170 
3 76 84 170 
3 85 79 171 
3 79 163 171 
3 44 43 180 
3 43 181 180 
3 182 42 183 
3 42 41 183 
3 44 180 65 
3 180 66 65 
3 68 183 69 
3 183 41 69 
3 44 184 45 
3 184 185 45 
3 186 187 40 
3 187 41 40 
3 44 65 184 
3 65 73 184 
3 74 69 187 
3 69 41 187 
3 33 37 39 
3 33 39 31 
3 34 36 28 
3 34 28 30 
3 31 39 188 
3 31 188 166 
3 189 34 30 
3 189 30 169 
3 180 31 66 
3 31 166 66 
3 169 30 68 
3 30 183 68 
3 180 181 31 
3 181 32 31 
3 29 182 30 
3 182 183 30 
3 190 191 77 
3 191 73 77 
3 74 192 78 
3 192 193 78 
3 190 77 157 
3 190 157 194 
3 158 78 193 
3 158 193 195 
3 194 157 167 
3 194 167 196 
3 168 158 195 
3 168 195 197 
3 167 198 196 
3 198 199 196 
3 200 201 197 
3 201 168 197 
3 202 203 27 
3 202 27 26 
3 25 204 205 
3 25 205 26 
3 206 207 203 
3 207 27 203 
3 25 208 204 
3 208 209 204 
3 210 202 211 
3 202 26 211 
3 26 205 211 
3 205 212 211 
3 213 214 202 
3 214 203 202 
3 204 215 205 
3 215 216 205 
3 213 202 210 
3 213 210 217 
3 212 205 216 
3 212 216 218 
3 217 210 219 
3 217 219 220 
3 221 212 218 
3 221 218 222 
3 220 219 223 
3 220 223 224 
3 225 221 222 
3 225 222 226 
3 224 223 185 
3 224 185 184 
3 186 225 226 
3 186 226 187 
3 224 184 191 
3 184 73 191 
3 74 187 192 
3 187 226 192 
3 191 190 220 
3 191 220 224 
3 222 193 192 
3 222 192 226 
3 190 194 217 
3 190 217 220 
3 218 195 193 
3 218 193 222 
3 194 196 213 
3 194 213 217 
3 216 197 195 
3 216 195 218 
3 196 199 214 
3 196 214 213 
3 215 200 197 
3 215 197 216 
3 185 223 227 
3 185 227 228 
3 227 225 186 
3 227 186 228 
3 223 219 229 
3 223 229 227 
3 229 221 225 
3 229 225 227 
3 219 210 229 
3 210 211 229 
3 211 212 229 
3 212 221 229 
3 45 185 230 
3 185 228 230 
3 228 186 230 
3 186 40 230 
3 166 188 198 
3 166 198 167 
3 201 189 169 
3 201 169 168 
3 32 231 33 
3 231 232 33 
3 233 234 28 
3 234 29 28 
3 231 32 235 
3 231 235 236 
3 235 29 234 
3 235 234 236 
3 32 181 237 
3 32 237 235 
3 237 182 29 
3 237 29 235 
3 181 43 237 
3 43 238 237 
3 238 42 237 
3 42 182 237 
3 43 45 238 
3 45 230 238 
3 230 40 238 
3 40 42 238 
3 39 38 239 
3 38 240 239 
3 241 35 242 
3 35 34 242 
3 37 243 38 
3 243 240 38 
3 241 244 35 
3 244 36 35 
3 33 232 245 
3 232 246 245 
3 247 233 248 
3 233 28 248 
3 37 33 243 
3 33 245 243 
3 248 28 244 
3 28 36 244 
3 249 250 246 
3 249 246 232 
3 247 251 252 
3 247 252 233 
3 253 249 231 
3 249 232 231 
3 233 252 234 
3 252 254 234 
3 255 256 257 
3 256 258 257 
3 259 260 261 
3 260 262 261 
3 253 257 258 
3 253 258 249 
3 259 261 254 
3 259 254 252 
3 258 263 250 
3 258 250 249 
3 251 264 259 
3 251 259 252 
3 256 265 263 
3 256 263 258 
3 264 266 260 
3 264 260 259 
3 255 267 265 
3 255 265 256 
3 266 268 262 
3 266 262 260 
3 269 270 267 
3 269 267 255 
3 268 270 269 
3 268 269 262 
3 257 271 255 
3 271 269 255 
3 269 271 262 
3 271 261 262 
3 253 272 257 
3 272 271 257 
3 271 272 261 
3 272 254 261 
3 231 236 253 
3 236 272 253 
3 272 236 254 
3 236 234 254 
3 39 239 273 
3 39 273 188 
3 274 242 34 
3 274 34 189 
3 188 273 275 
3 188 275 198 
3 276 274 189 
3 276 189 201 
3 198 275 199 
3 275 277 199 
3 278 276 200 
3 276 201 200 
3 199 277 279 
3 199 279 214 
3 280 278 200 
3 280 200 215 
3 214 279 203 
3 279 281 203 
3 282 280 204 
3 280 215 204 
3 203 281 206 
3 281 283 206 
3 284 282 209 
3 282 204 209 
3 206 283 207 
3 283 285 207 
3 286 284 208 
3 284 209 208 
3 207 285 287 
3 207 287 27 
3 288 286 208 
3 288 208 25 
3 27 287 289 
3 27 289 24 
3 289 288 25 
3 289 25 24 
3 290 291 292 
3 290 292 293 
3 294 295 296 
3 294 296 297 
3 293 292 298 
3 293 298 299 
3 300 294 297 
3 300 297 301 
3 299 298 302 
3 299 302 303 
3 304 300 301 
3 304 301 305 
3 306 307 291 
3 306 291 290 
3 295 308 309 
3 295 309 296 
3 310 311 306 
3 311 307 306 
3 308 312 309 
3 312 313 309 
3 314 315 310 
3 315 311 310 
3 312 316 313 
3 316 317 313 
3 318 319 315 
3 318 315 314 
3 316 320 321 
3 316 321 317 
3 322 323 318 
3 323 319 318 
3 320 324 321 
3 324 325 321 
3 326 327 323 
3 326 323 322 
3 324 328 329 
3 324 329 325 
3 330 331 326 
3 331 327 326 
3 328 332 329 
3 332 333 329 
3 334 335 330 
3 335 331 330 
3 332 336 333 
3 336 337 333 
3 338 339 335 
3 338 335 334 
3 336 340 341 
3 336 341 337 
3 303 302 339 
3 303 339 338 
3 340 304 305 
3 340 305 341 
3 302 342 343 
3 302 343 339 
3 344 345 304 
3 344 304 340 
3 339 343 346 
3 339 346 335 
3 347 344 340 
3 347 340 336 
3 335 346 348 
3 335 348 331 
3 349 347 336 
3 349 336 332 
3 331 348 327 
3 348 350 327 
3 351 349 328 
3 349 332 328 
3 327 350 323 
3 350 352 323 
3 353 351 324 
3 351 328 324 
3 323 352 354 
3 323 354 319 
3 355 353 324 
3 355 324 320 
3 319 354 356 
3 319 356 315 
3 357 355 320 
3 357 320 316 
3 315 356 358 
3 315 358 311 
3 359 357 316 
3 359 316 312 
3 311 358 360 
3 311 360 307 
3 361 359 312 
3 361 312 308 
3 307 360 291 
3 360 362 291 
3 363 361 295 
3 361 308 295 
3 298 364 302 
3 364 342 302 
3 345 365 304 
3 365 300 304 
3 292 366 364 
3 292 364 298 
3 365 367 294 
3 365 294 300 
3 291 362 366 
3 291 366 292 
3 367 363 295 
3 367 295 294 
3 22 368 369 
3 22 369 23 
3 369 368 19 
3 369 19 18 
3 369 370 23 
3 370 371 23 
3 372 370 18 
3 370 369 18 
3 23 371 373 
3 23 373 21 
3 374 372 18 
3 374 18 20 
3 21 373 375 
3 21 375 22 
3 376 374 20 
3 376 20 19 
3 22 375 368 
3 375 377 368 
3 377 376 368 
3 376 19 368 
3 375 378 379 
3 375 379 377 
3 379 380 376 
3 379 376 377 
3 373 381 378 
3 373 378 375 
3 380 382 374 
3 380 374 376 
3 371 383 381 
3 371 381 373 
3 382 384 372 
3 382 372 374 
3 370 385 371 
3 385 383 371 
3 384 385 372 
3 385 370 372 
3 386 387 240 
3 386 240 243 
3 241 388 389 
3 241 389 244 
3 386 243 390 
3 243 245 390 
3 248 244 391 
3 244 389 391 
3 390 245 392 
3 245 246 392 
3 247 248 393 
3 248 391 393 
3 392 394 390 
3 394 395 390 
3 396 397 391 
3 397 393 391 
3 390 395 386 
3 395 398 386 
3 399 396 389 
3 396 391 389 
3 386 398 400 
3 386 400 387 
3 401 399 389 
3 401 389 388 
3 387 400 402 
3 387 402 403 
3 402 401 388 
3 402 388 403 
3 404 405 406 
3 404 406 407 
3 406 405 408 
3 406 408 409 
3 410 407 411 
3 407 406 411 
3 406 409 412 
3 409 413 412 
3 404 407 414 
3 404 414 415 
3 416 409 408 
3 416 408 417 
3 407 410 414 
3 410 418 414 
3 419 413 416 
3 413 409 416 
3 410 411 420 
3 410 420 418 
3 421 412 413 
3 421 413 419 
3 411 406 422 
3 411 422 420 
3 422 406 412 
3 422 412 421 
3 404 415 405 
3 415 423 405 
3 423 417 405 
3 417 408 405 
3 415 395 423 
3 395 424 423 
3 424 396 423 
3 396 417 423 
3 420 422 402 
3 425 422 402 
3 422 421 402 
3 418 420 400 
3 420 402 400 
3 402 421 401 
3 421 419 401 
3 414 418 398 
3 418 400 398 
3 401 419 399 
3 419 416 399 
3 415 414 398 
3 415 398 395 
3 399 416 417 
3 399 417 396 
3 426 383 427 
3 383 385 427 
3 385 384 427 
3 384 428 427 
3 429 394 427 
3 394 426 427 
3 428 397 427 
3 397 429 427 
3 429 424 394 
3 424 395 394 
3 396 424 397 
3 424 429 397 
3 430 431 383 
3 430 383 426 
3 384 432 433 
3 384 433 428 
3 426 394 392 
3 426 392 430 
3 393 397 428 
3 393 428 433 
3 434 381 431 
3 381 383 431 
3 384 382 432 
3 382 435 432 
3 436 378 381 
3 436 381 434 
3 382 380 437 
3 382 437 435 
3 438 379 378 
3 438 378 436 
3 380 379 438 
3 380 438 437 
3 366 362 439 
3 362 403 439 
3 403 363 439 
3 363 367 439 
3 439 440 364 
3 439 364 366 
3 365 440 439 
3 365 439 367 
3 440 441 364 
3 441 342 364 
3 345 442 365 
3 442 440 365 
3 403 362 360 
3 403 360 387 
3 361 363 403 
3 361 403 388 
3 443 387 360 
3 443 360 358 
3 361 388 444 
3 361 444 359 
3 445 443 356 
3 443 358 356 
3 359 444 357 
3 444 446 357 
3 447 445 354 
3 445 356 354 
3 357 446 355 
3 446 448 355 
3 449 447 352 
3 447 354 352 
3 355 448 353 
3 448 450 353 
3 451 449 350 
3 449 352 350 
3 353 450 351 
3 450 452 351 
3 453 451 348 
3 451 350 348 
3 351 452 349 
3 452 454 349 
3 455 453 346 
3 453 348 346 
3 349 454 347 
3 454 456 347 
3 455 346 343 
3 455 343 457 
3 344 347 456 
3 344 456 458 
3 457 343 441 
3 343 342 441 
3 345 344 442 
3 344 458 442 
3 440 289 441 
3 289 287 441 
3 288 289 442 
3 289 440 442 
3 441 287 457 
3 287 285 457 
3 286 288 458 
3 288 442 458 
3 457 285 455 
3 285 283 455 
3 284 286 456 
3 286 458 456 
3 455 283 281 
3 455 281 453 
3 282 284 456 
3 282 456 454 
3 453 281 451 
3 281 279 451 
3 280 282 452 
3 282 454 452 
3 451 279 449 
3 279 277 449 
3 278 280 450 
3 280 452 450 
3 449 277 447 
3 277 275 447 
3 276 278 448 
3 278 450 448 
3 447 275 273 
3 447 273 445 
3 274 276 448 
3 274 448 446 
3 445 273 443 
3 273 239 443 
3 242 274 444 
3 274 446 444 
3 443 239 240 
3 443 240 387 
3 241 242 444 
3 241 444 388 
3 430 392 246 
3 430 246 250 
3 247 393 433 
3 247 433 251 
3 431 430 250 
3 431 250 263 
3 251 433 432 
3 251 432 264 
3 434 431 263 
3 434 263 265 
3 264 432 435 
3 264 435 266 
3 436 434 267 
3 434 265 267 
3 266 435 268 
3 435 437 268 
3 438 436 270 
3 436 267 270 
3 268 437 270 
3 437 438 270 
3 3 459 460 
3 3 5 459 
3 461 1 462 
3 461 2 1 
3 5 463 459 
3 5 7 463 
3 2 461 464 
3 464 6 2 
3 7 465 463 
3 7 9 465 
3 466 6 464 
3 466 8 6 
3 9 467 465 
3 9 11 467 
3 468 8 466 
3 468 10 8 
3 11 13 467 
3 467 13 469 
3 470 12 468 
3 468 12 10 
3 13 15 469 
3 469 15 471 
3 472 14 470 
3 470 14 12 
3 15 17 471 
3 471 17 473 
3 474 16 472 
3 472 16 14 
3 17 3 473 
3 473 3 460 
3 462 1 474 
3 474 1 16 
3 475 476 460 
3 460 476 473 
3 474 477 462 
3 462 477 478 
3 479 480 475 
3 475 480 476 
3 477 481 478 
3 478 481 482 
3 480 483 476 
3 476 483 484 
3 485 486 477 
3 477 486 481 
3 476 484 473 
3 473 484 471 
3 472 485 474 
3 474 485 477 
3 484 487 471 
3 471 487 469 
3 470 488 472 
3 472 488 485 
3 483 489 484 
3 484 489 487 
3 488 490 485 
3 485 490 486 
3 489 491 487 
3 487 491 492 
3 493 494 488 
3 488 494 490 
3 487 467 469 
3 487 492 467 
3 468 488 470 
3 468 493 488 
3 492 495 467 
3 467 495 465 
3 466 496 468 
3 468 496 493 
3 491 497 492 
3 492 497 495 
3 496 498 493 
3 493 498 494 
3 497 499 495 
3 497 500 499 
3 501 498 496 
3 501 502 498 
3 495 463 465 
3 495 499 463 
3 464 496 466 
3 464 501 496 
3 499 459 463 
3 499 503 459 
3 461 501 464 
3 461 504 501 
3 500 503 499 
3 500 505 503 
3 504 502 501 
3 504 506 502 
3 505 475 503 
3 505 479 475 
3 478 506 504 
3 478 482 506 
3 503 460 459 
3 503 475 460 
3 504 461 462 
3 462 478 504 
