ply
format ascii 1.0
comment Created by Jack Hoxley
element vertex 8
property float x
property float y
property float z
property float nx
property float ny
property float nz
element face 12
property list uchar uint vertex_indices
end_header
0.500000 0.500000 0.500000 0.5773502 0.5773502 0.5773502
-0.500000 0.500000 0.500000 -0.5773502 0.5773502 0.5773502
0.500000 -0.500000 0.500000 0.5773502 -0.5773502 0.5773502
-0.500000 -0.500000 0.500000 -0.5773502 -0.5773502 0.5773502
0.500000 0.500000 -0.500000 0.5773502 0.5773502 -0.5773502
-0.500000 0.500000 -0.500000 -0.5773502 0.5773502 -0.5773502
0.500000 -0.500000 -0.500000 0.5773502 -0.5773502 -0.5773502
-0.500000 -0.500000 -0.500000 -0.5773502 -0.5773502 -0.5773502
3 1 0 4
3 4 5 1
3 5 4 6
3 6 7 5
3 2 4 0
3 2 6 4
3 0 1 2
3 1 3 2
3 1 5 3
3 5 7 3
3 2 3 7
3 7 6 2

