ply
format ascii 1.0
comment Created by Jack Hoxley
element vertex 12
property float x
property float y
property float z
property float nx
property float ny
property float nz
element face 4
property list uchar uint vertex_indices
end_header
-1.000000 0.000000 -1.000000 0.5773502 1.000000 0.5773502
-0.100000 0.000000 -1.000000 -0.5773502 1.000000 0.5773502
-0.450000 0.000000 -0.100000 0.000000 0.707000 -0.707000
0.100000 0.000000 -1.000000 -0.5773502 0.5773502 -0.5773502
1.000000 0.000000 -1.000000 0.5773502 0.5773502 -0.5773502
0.550000 0.000000 -0.100000 0.000000 0.707000 0.707000
-0.400000 0.000000 0.100000 0.000000 0.707000 0.707000
0.400000 0.000000 0.100000 0.000000 0.707000 0.707000
0.000000 -0.10000 1.000000 0.000000 0.707000 0.707000
0.000000 0.000000 -1.000000 0.000000 1.000000 0.000000
0.400000 0.000000 0.000000 0.000000 1.000000 0.000000
-0.400000 0.000000 0.000000 0.000000 1.000000 0.000000
3 2 1 0
3 5 4 3
3 8 7 6
3 11 10 9

