ply
format ascii 1.0
comment Created by Blender3D 249 - www.blender.org, source file: spaceship2.blend
element vertex 58
property float x
property float y
property float z
property float nx
property float ny
property float nz
element face 112
property list uchar uint vertex_indices
end_header
-0.256794 0.272267 -3.004810 -0.664296 0.322428 -0.674337 
0.256794 0.272267 -3.004810 0.664296 0.322428 -0.674337 
-1.000000 0.000000 -3.004810 -0.142186 0.646992 -0.749107 
-0.450694 1.000000 1.665524 -0.523942 0.833216 0.176611 
-1.000000 0.000000 3.004810 -0.802576 0.512925 0.304514 
0.450694 1.000000 1.665524 0.346324 0.908078 0.235420 
-1.000000 -1.000000 3.004810 -0.545183 -0.826441 0.140477 
-1.000000 -1.000000 0.000000 -0.545671 -0.803949 0.236305 
0.999999 -1.000001 3.004810 0.692679 -0.705771 0.148473 
-1.000000 -1.000000 -3.004810 -0.053438 -0.706290 -0.705863 
1.000000 -1.000000 -3.004810 -0.038392 -0.831141 -0.554674 
-0.432036 1.000000 0.000000 -0.501236 0.844172 0.189947 
1.000000 0.000000 -3.004810 0.207526 0.677877 -0.705222 
1.000000 -0.000001 3.004810 0.744438 0.632435 0.214057 
1.000000 -1.000000 0.000000 0.713065 -0.629749 0.308054 
0.432037 1.000000 0.000000 0.691427 0.715598 0.098941 
-0.384219 -0.692109 -2.999787 0.333323 0.666646 -0.666646 
-0.384219 -0.307890 -2.999787 0.816492 -0.408246 -0.408246 
0.384219 -0.307890 -2.999787 -0.333323 -0.666646 -0.666646 
0.384219 -0.692109 -2.999787 -0.816492 0.408246 -0.408246 
0.384219 -0.692109 -3.441416 0.076479 0.473983 -0.877194 
-0.384219 -0.692109 -3.441416 0.568560 -0.265664 -0.778527 
-0.384219 -0.307890 -3.441416 -0.076479 -0.473983 -0.877194 
0.384219 -0.307890 -3.441416 -0.568560 0.265664 -0.778527 
-0.595706 -0.202147 -3.285044 -0.288125 0.544877 -0.787408 
0.595706 -0.202147 -3.285044 0.408185 0.380474 -0.829798 
0.595706 -0.797853 -3.285044 0.288125 -0.544877 -0.787408 
-0.595706 -0.797853 -3.285044 -0.408185 -0.380474 -0.829798 
-0.825193 3.079114 -3.004809 -0.666646 -0.666646 -0.333323 
-0.825193 3.079114 -2.483644 -0.408246 -0.408246 0.816492 
-0.825193 3.229203 -2.483644 -0.666646 0.666646 0.333323 
-0.825193 3.229203 -3.004809 -0.408246 0.408246 -0.816492 
-0.100824 3.079113 -3.004809 -0.236061 -0.223304 -0.945708 
-0.100824 3.229202 -3.004809 0.000000 0.799982 -0.599994 
-0.100824 3.229202 -2.483644 0.000000 0.554674 0.832026 
-0.100824 3.079113 -2.483644 -0.470779 -0.261818 0.842494 
0.825195 3.079111 -2.483644 0.408246 -0.816492 0.408246 
0.825195 3.079112 -3.004809 0.666646 -0.333323 -0.666646 
0.825196 3.229200 -2.483644 0.666646 0.333323 0.666646 
0.825196 3.229201 -3.004809 0.408246 0.816492 -0.408246 
0.100827 3.079113 -2.483644 0.423780 0.139927 0.894864 
0.100827 3.229202 -2.483644 0.000000 0.799982 0.599994 
0.100827 3.229202 -3.004809 0.000000 0.554674 -0.832026 
0.100827 3.079113 -3.004809 0.182958 -0.356334 -0.916257 
-0.261388 -0.630694 5.858910 -0.567339 -0.290597 0.770470 
0.261387 -0.630694 5.858910 0.362224 -0.742119 0.563921 
0.261388 -0.369306 5.858910 0.567339 0.290597 0.770470 
-0.261388 -0.369306 5.858910 -0.362224 0.742119 0.563921 
-4.979179 -0.853746 -4.908540 -0.766167 -0.477004 -0.430586 
-4.979179 -0.853746 -3.673378 -0.635273 -0.724815 0.266457 
-4.979179 -0.677986 -3.673378 -0.832301 0.444411 0.331248 
-4.979179 -0.677986 -4.908540 -0.146641 0.474288 -0.868038 
-1.000000 0.000000 0.000000 -0.813044 0.574450 0.094485 
4.965032 -0.677988 -4.908540 0.145817 0.474563 -0.868038 
4.965032 -0.677988 -3.673378 0.832728 0.444136 0.330515 
4.965032 -0.853748 -4.908540 0.766045 -0.477248 -0.430525 
4.965032 -0.853748 -3.673378 0.635701 -0.724631 0.265969 
1.000000 -0.000000 0.000000 0.813166 0.574328 0.094272 
3 0 1 2 
3 3 4 5 
3 6 7 8 
3 7 9 10 
3 11 3 5 
3 1 12 2 
3 13 5 4 
3 10 14 7 
3 14 8 7 
3 5 15 11 
3 16 17 18 
3 16 18 19 
3 20 21 16 
3 20 16 19 
3 21 22 17 
3 21 17 16 
3 23 20 19 
3 23 19 18 
3 22 23 18 
3 22 18 17 
3 24 25 23 
3 24 23 22 
3 25 26 20 
3 25 20 23 
3 27 24 22 
3 27 22 21 
3 26 27 21 
3 26 21 20 
3 10 9 26 
3 9 27 26 
3 9 2 24 
3 9 24 27 
3 12 10 26 
3 12 26 25 
3 2 12 24 
3 12 25 24 
3 28 29 30 
3 28 30 31 
3 32 28 31 
3 32 31 33 
3 33 31 30 
3 33 30 34 
3 34 30 29 
3 34 29 35 
3 35 29 28 
3 35 28 32 
3 36 37 38 
3 37 39 38 
3 40 36 38 
3 40 38 41 
3 41 38 39 
3 41 39 42 
3 42 39 37 
3 42 37 43 
3 43 37 36 
3 43 36 40 
3 33 34 41 
3 33 41 42 
3 35 40 41 
3 35 41 34 
3 43 32 33 
3 43 33 42 
3 1 0 43 
3 0 32 43 
3 0 11 35 
3 0 35 32 
3 15 1 40 
3 1 43 40 
3 11 15 40 
3 11 40 35 
3 44 45 46 
3 44 46 47 
3 6 8 45 
3 6 45 44 
3 4 6 44 
3 4 44 47 
3 8 13 46 
3 8 46 45 
3 13 4 47 
3 13 47 46 
3 48 49 50 
3 48 50 51 
3 2 9 51 
3 9 48 51 
3 9 7 49 
3 9 49 48 
3 7 52 50 
3 7 50 49 
3 52 2 50 
3 2 51 50 
3 53 54 55 
3 54 56 55 
3 10 12 53 
3 10 53 55 
3 14 10 56 
3 10 55 56 
3 12 57 54 
3 12 54 53 
3 57 14 54 
3 14 56 54 
3 57 13 14 
3 13 8 14 
3 1 15 57 
3 1 57 12 
3 15 5 57 
3 5 13 57 
3 2 52 0 
3 52 11 0 
3 52 4 3 
3 52 3 11 
3 7 6 4 
3 7 4 52 
